<?xml version="1.0" encoding="utf-8" ?>
<svg baseProfile="full" height="200mm" version="1.1" viewBox="0,0,200,200" width="200mm" xmlns="http://www.w3.org/2000/svg" xmlns:ev="http://www.w3.org/2001/xml-events" xmlns:xlink="http://www.w3.org/1999/xlink"><defs /><rect fill="#1a1a1a" height="200" width="200" x="0" y="0" /><text alignment-baseline="middle" fill="#e1ed5e" style="dominant-baseline: central; font-size:9.0px; font-family:Arial;" text-anchor="middle" x="100.0" y="100.0">2024</text><line stroke="#e1ed5e" stroke-width="0.3" x1="100.0" x2="100.0" y1="15.0" y2="10.0" /><path d="M 100.0 14.0 a86.0,86.0 0 0,1 42.35913384403234,11.155469271406648" fill="none" id="id73" stroke="none" /><text fill="#e1ed5e" style="font-size:6.75px; font-family:Arial;" text-anchor="middle"><textPath startOffset="22.145653131862478" xlink:href="#id73">January</textPath></text><path d="M 100.72087961077811 79.0123766808444 l 0.5102092857585714 -14.854186667699034 a35.86294637930589,35.86294637930589 0 0,0 0.6150909254656901,0.026414650912857548 l -0.7651259718250978 14.843239448360345" fill="#ff0100" stroke="none" /><path d="M 106.04205211174951 79.88797359093562 l 4.273850418023183 -14.226258047083311 a35.85436688041061,35.85436688041061 0 0,0 0.5879422422726943,0.18214600956355048 l -4.517433293167508 14.150795449713113" fill="#ff0100" stroke="none" /><line stroke="#e1ed5e" stroke-width="0.3" x1="143.13028292997686" x2="145.6673583964461" y1="26.7553504044142" y2="22.446841604673864" /><path d="M 143.63769802327073 25.89364864446614 a86.0,86.0 0 0,1 29.32050498858742,28.57503671076993" fill="none" id="id74" stroke="none" /><text fill="#e1ed5e" style="font-size:6.75px; font-family:Arial;" text-anchor="middle"><textPath startOffset="20.669276256404974" xlink:href="#id74">February</textPath></text><path d="M 115.41159269507618 85.73525988315684 l 10.86525264021815 -10.056715634982575 a35.80510872296014,35.80510872296014 0 0,0 0.41363817608555603,0.4546608142612241 l -11.036288517145584 9.86871724516368" fill="#ff0000" stroke="none" /><path d="M 115.6541949942343 86.00192230759917 l 11.037280919721882 -9.869604657666862 a35.80644002451285,35.80644002451285 0 0,0 0.40578745546973166,0.46171163494877204 l -11.205079439150204 9.678680744906794" fill="#ff0000" stroke="none" /><line stroke="#e1ed5e" stroke-width="0.3" x1="172.87174338648825" x2="177.1583165268699" y1="56.24261187166439" y2="53.66864786411523" /><path d="M 173.72905801456457 55.72781907015455 a86.0,86.0 0 0,1 12.242430191666344,42.057860355516425" fill="none" id="id75" stroke="none" /><text fill="#e1ed5e" style="font-size:6.75px; font-family:Arial;" text-anchor="middle"><textPath startOffset="22.145653131862474" xlink:href="#id75">March</textPath></text><path d="M 119.4528033332814 92.08871423366111 l 13.71281979799062 -5.576884432826543 a35.80348157661793,35.80348157661793 0 0,0 0.22665534674388288,0.5713195360255964 l -13.806533819700629 5.340663879587382" fill="#ff0000" stroke="none" /><path d="M 119.58574465831526 92.42381321644754 l 15.187656267330658 -5.874911712220072 a37.28433267042186,37.28433267042186 0 0,0 0.22578205191106948,0.5989137172155503 l -15.286269003056168 5.613329714810364" fill="#ff1c02" stroke="none" /><path d="M 120.26092885502905 94.47779374421319 l 15.704230975064656 -4.28025798586709 a37.2770844730793,37.2770844730793 0 0,0 0.16297278474092086,0.618834208926547 l -15.775393240610306 4.010043272567745" fill="#ff1b02" stroke="none" /><path d="M 120.82617615685814 97.30363454192243 l 19.089663115779505 -2.471539078707695 a40.24899330592464,40.24899330592464 0 0,0 0.082832262896706,0.6859699619836979 l -19.12927746493587 2.143475439800584" fill="#ff5107" stroke="none" /><path d="M 120.99303781780057 99.45929381324524 l 14.91332346401957 -0.3841143112328832 a35.91826935494096,35.91826935494096 0 0,0 0.010584888893361427,0.6165167124782021 l -14.917719784511597 0.1280506827856148" fill="#ff0200" stroke="none" /><line stroke="#e1ed5e" stroke-width="0.3" x1="184.99686870605535" x2="189.99668451229388" y1="99.2704041080226" y2="99.22748670261217" /><path d="M 185.99683186730306 99.26182062694052 a86.0,86.0 0 0,1 -10.086455211305974,41.156179273409016" fill="none" id="id76" stroke="none" /><text fill="#e1ed5e" style="font-size:6.75px; font-family:Arial;" text-anchor="middle"><textPath startOffset="21.40746469413373" xlink:href="#id76">April</textPath></text><path d="M 120.99922638620191 99.81974689727618 l 20.721093223070355 -0.17786566402952475 a41.72185659041228,41.72185659041228 0 0,0 0.0,0.7162375335067007 l -20.721093223070355 -0.17786566402952225" fill="#ff6c09" stroke="none" /><path d="M 120.592083275326 104.11899336999214 l 14.521586693858847 2.9047240395264784 a35.80925055001303,35.80925055001303 0 0,0 -0.12574552901056413,0.6017378767094531 l -14.469583454023917 -3.153578367521341" fill="#ff0000" stroke="none" /><path d="M 119.83427380445688 106.89939002012753 l 13.987457053062887 4.865563647567437 a35.809546394802524,35.809546394802524 0 0,0 -0.2069447838703219,0.5788613918519551 l -13.901872099148623 -5.104959995800313" fill="#ff0000" stroke="none" /><path d="M 119.71291397450082 107.23885506374661 l 13.94269583934409 5.119951038667811 a35.8530355788579,35.8530355788579 0 0,0 -0.2171145722733281,0.5759221977179116 l -13.852750583256322 -5.358541516579882" fill="#ff0100" stroke="none" /><line stroke="#e1ed5e" stroke-width="0.3" x1="174.33088141563837" x2="178.70328620479359" y1="141.23008692659167" y2="143.65538615756765" /><path d="M 175.20536237346943 141.71514677278685 a86.0,86.0 0 0,1 -30.301960400862466,31.631185727798858" fill="none" id="id77" stroke="none" /><text fill="#e1ed5e" style="font-size:6.75px; font-family:Arial;" text-anchor="middle"><textPath startOffset="22.145653131862474" xlink:href="#id77">May</textPath></text><path d="M 118.18653347947321 110.5 l 37.17722193110048 21.46427908964331 a63.92855817928664,63.92855817928664 0 0,0 -0.5568673316423974,0.9456824719558689 l -36.80328088932832 -22.099312729892727" fill="#42ff2d" stroke="none" /><path d="M 115.89218393027572 113.72728997021213 l 11.203848062533451 9.67761711111329 a35.804812878170644,35.804812878170644 0 0,0 -0.4057690153351317,0.461690653460605 l -11.036067983239734 -9.868520042385189" fill="#ff0000" stroke="none" /><path d="M 111.8722381534696 117.32195027204791 l 9.925454131525404 14.481534203685973 a38.55646526523894,38.55646526523894 0 0,0 -0.5491610418424727,0.36950005723022017 l -9.67539680158593 -14.649783934973314" fill="#ff3304" stroke="none" /><line stroke="#e1ed5e" stroke-width="0.3" x1="143.1302829299769" x2="145.66735839644613" y1="173.24464959558577" y2="177.55315839532614" /><path d="M 143.63769802327073 174.10635135553383 a86.0,86.0 0 0,1 -40.68552437913181,11.842963189579606" fill="none" id="id78" stroke="none" /><text fill="#e1ed5e" style="font-size:6.75px; font-family:Arial;" text-anchor="middle"><textPath startOffset="21.407464694133747" xlink:href="#id78">June</textPath></text><path d="M 110.65571695917076 118.09573695890943 l 31.967150877512285 54.28721087672828 a84.0,84.0 0 0,0 -1.2488301285584058,0.7210124108953133 l -31.03052828109348 -54.82797018489977" fill="#4dd2ff" stroke="none" /><line stroke="#e1ed5e" stroke-width="0.3" x1="101.45913802915013" x2="101.54496967792366" y1="184.9874750549273" y2="189.98673829345242" /><path d="M 101.47630435890484 185.9873277026323 a86.0,86.0 0 0,1 -42.54439059252881,-10.42667462771756" fill="none" id="id79" stroke="none" /><text fill="#e1ed5e" style="font-size:6.75px; font-family:Arial;" text-anchor="middle"><textPath startOffset="22.145653131862474" xlink:href="#id79">July</textPath></text><path d="M 90.6110303473126 118.78422872680471 l -6.65511748452295 13.314693055510562 a35.885282660912566,35.885282660912566 0 0,0 -0.5486565430253623,-0.2801479402013933 l 6.882701249261895 -13.198487163636331" fill="#ff0200" stroke="none" /><line stroke="#e1ed5e" stroke-width="0.3" x1="58.13341422392154" x2="55.67067388415222" y1="173.97424548756322" y2="178.32567169271397" /><path d="M 57.64086615596768 174.84453072859336 a86.0,86.0 0 0,1 -31.369924170532247,-30.572349798747897" fill="none" id="id80" stroke="none" /><text fill="#e1ed5e" style="font-size:6.75px; font-family:Arial;" text-anchor="middle"><textPath startOffset="22.145653131862474" xlink:href="#id80">August</textPath></text><line stroke="#e1ed5e" stroke-width="0.3" x1="26.387840678322732" x2="22.057713659400548" y1="142.50000000000003" y2="145.00000000000006" /><path d="M 25.521815274538298 143.00000000000003 a86.0,86.0 0 0,1 -11.493303480769221,-40.785679425670985" fill="none" id="id81" stroke="none" /><text fill="#e1ed5e" style="font-size:6.75px; font-family:Arial;" text-anchor="middle"><textPath startOffset="21.40746469413373" xlink:href="#id81">September</textPath></text><line stroke="#e1ed5e" stroke-width="0.3" x1="15.003131293944662" x2="10.003315487706104" y1="100.72959589197737" y2="100.7725132973878" /><path d="M 14.003168132696942 100.73817937305945 a86.0,86.0 0 0,1 10.791469493833604,-42.45332614584628" fill="none" id="id82" stroke="none" /><text fill="#e1ed5e" style="font-size:6.75px; font-family:Arial;" text-anchor="middle"><textPath startOffset="22.145653131862435" xlink:href="#id82">October</textPath></text><path d="M 79.00077361379809 100.18025310272382 l -14.872605116143333 0.12766342761714916 a35.87315302454338,35.87315302454338 0 0,0 0.0,-0.615833060681928 l 14.872605116143333 0.1276634276171437" fill="#ff0100" stroke="none" /><path d="M 79.01933749520258 99.09900007780938 l -14.910147993601855 -0.6403059092635479 a35.923890405941314,35.923890405941314 0 0,0 0.03174715745098252,-0.6158863732277425 l 14.896959246694301 0.8961640758680024" fill="#ff0200" stroke="none" /><line stroke="#e1ed5e" stroke-width="0.3" x1="26.387840678322718" x2="22.05771365940052" y1="57.49999999999999" y2="54.99999999999999" /><path d="M 25.521815274538284 56.99999999999999 a86.0,86.0 0 0,1 29.574782752854787,-30.34633250058573" fill="none" id="id83" stroke="none" /><text fill="#e1ed5e" style="font-size:6.75px; font-family:Arial;" text-anchor="middle"><textPath startOffset="21.40746469413373" xlink:href="#id83">November</textPath></text><line stroke="#e1ed5e" stroke-width="0.3" x1="56.869717070023135" x2="54.33264160355391" y1="26.7553504044142" y2="22.446841604673864" /><path d="M 56.362301976729285 25.89364864446614 a86.0,86.0 0 0,1 42.16139366436587,-11.88097634709845" fill="none" id="id84" stroke="none" /><text fill="#e1ed5e" style="font-size:6.75px; font-family:Arial;" text-anchor="middle"><textPath startOffset="22.145653131862474" xlink:href="#id84">December</textPath></text></svg>