<?xml version="1.0" encoding="utf-8" ?>
<svg baseProfile="full" height="200mm" version="1.1" viewBox="0,0,200,200" width="200mm" xmlns="http://www.w3.org/2000/svg" xmlns:ev="http://www.w3.org/2001/xml-events" xmlns:xlink="http://www.w3.org/1999/xlink"><defs /><rect fill="#1a1a1a" height="200" width="200" x="0" y="0" /><text alignment-baseline="middle" fill="#e1ed5e" style="dominant-baseline: central; font-size:9.0px; font-family:Arial;" text-anchor="middle" x="100.0" y="100.0">2024</text><line stroke="#e1ed5e" stroke-width="0.3" x1="100.0" x2="100.0" y1="15.0" y2="10.0" /><path d="M 100.0 14.0 a86.0,86.0 0 0,1 42.35913384403234,11.155469271406648" fill="none" id="id73" stroke="none" /><text fill="#e1ed5e" style="font-size:6.75px; font-family:Arial;" text-anchor="middle"><textPath startOffset="22.145653131862478" xlink:href="#id73">January</textPath></text><path d="M 100.72087961077811 79.0123766808444 l 0.74875994829706 -21.799328925903144 a42.81218428034871,42.81218428034871 0 0,0 0.7342783766757824,0.03153307289985765 l -1.1228640855736787 21.783263284577455" fill="#ff0200" stroke="none" /><path d="M 106.04205211174951 79.88797359093562 l 6.272108539284162 -20.877809434529265 a42.799593397884294,42.799593397884294 0 0,0 0.7018305188498567,0.21742888877021016 l -6.629579691005649 20.76706395795241" fill="#ff0200" stroke="none" /><line stroke="#e1ed5e" stroke-width="0.3" x1="143.13028292997686" x2="145.6673583964461" y1="26.7553504044142" y2="22.446841604673864" /><path d="M 143.63769802327073 25.89364864446614 a86.0,86.0 0 0,1 29.32050498858742,28.57503671076993" fill="none" id="id74" stroke="none" /><text fill="#e1ed5e" style="font-size:6.75px; font-family:Arial;" text-anchor="middle"><textPath startOffset="20.669276256404974" xlink:href="#id74">February</textPath></text><path d="M 115.41159269507618 85.73525988315684 l 15.94535072608204 -14.758778581797467 a42.72730436580407,42.72730436580407 0 0,0 0.49360677504633105,0.5425603129557424 l -16.19635520197025 14.482880693284052" fill="#ff0000" stroke="none" /><path d="M 115.6541949942343 86.00192230759917 l 16.19781160686617 -14.484183019522625 a42.72925812342787,42.72925812342787 0 0,0 0.4842424132682555,0.5509789751455301 l -16.444065084093015 14.203991766565796" fill="#ff0000" stroke="none" /><line stroke="#e1ed5e" stroke-width="0.3" x1="172.87174338648825" x2="177.1583165268699" y1="56.24261187166439" y2="53.66864786411523" /><path d="M 173.72905801456457 55.72781907015455 a86.0,86.0 0 0,1 12.242430191666344,42.057860355516425" fill="none" id="id75" stroke="none" /><text fill="#e1ed5e" style="font-size:6.75px; font-family:Arial;" text-anchor="middle"><textPath startOffset="22.145653131862474" xlink:href="#id75">March</textPath></text><path d="M 119.4528033332814 92.08871423366111 l 20.124310806465683 -8.184382009773582 a42.72491643981944,42.72491643981944 0 0,0 0.27047176207005763,0.6817655256485198 l -20.261841243501866 7.837715466911496" fill="#ff0000" stroke="none" /><path d="M 119.58574465831526 92.42381321644754 l 22.288713747285964 -8.62175329355576 a44.89814617001482,44.89814617001482 0 0,0 0.27188888316381316,0.7212175649345328 l -22.43343331426422 8.237867448427068" fill="#ff2f04" stroke="none" /><path d="M 120.26092885502905 94.47779374421319 l 23.046815299435103 -6.281511994496426 a44.887509045174184,44.887509045174184 0 0,0 0.19624502432475274,0.7451743220614317 l -23.151249804564586 5.884957168062195" fill="#ff2f04" stroke="none" /><path d="M 120.82617615685814 97.30363454192243 l 28.015121571783794 -3.627118369740976 a49.24894731401399,49.24894731401399 0 0,0 0.10135413127711553,0.8393576023119669 l -28.073257789320575 3.145667090505596" fill="#ff890c" stroke="none" /><path d="M 120.99303781780057 99.45929381324524 l 21.886115399202204 -0.5637086972873909 a42.8933737638262,42.8933737638262 0 0,0 0.012640408452448687,0.7362404217934614 l -21.892567239253317 0.18792135952486322" fill="#ff0400" stroke="none" /><line stroke="#e1ed5e" stroke-width="0.3" x1="184.99686870605535" x2="189.99668451229388" y1="99.2704041080226" y2="99.22748670261217" /><path d="M 185.99683186730306 99.26182062694052 a86.0,86.0 0 0,1 -10.086455211305974,41.156179273409016" fill="none" id="id76" stroke="none" /><text fill="#e1ed5e" style="font-size:6.75px; font-family:Arial;" text-anchor="middle"><textPath startOffset="21.40746469413373" xlink:href="#id76">April</textPath></text><path d="M 120.99922638620191 99.81974689727618 l 30.40933421526633 -0.26102756088525747 a51.41045449846663,51.41045449846663 0 0,0 0.0,0.8825613272181649 l -30.40933421526633 -0.26102756088525375" fill="#ffb410" stroke="none" /><path d="M 120.592083275326 104.11899336999214 l 21.311220327789492 4.262840921092614 a42.733382722855865,42.733382722855865 0 0,0 -0.15005987934294973,0.7180908449438174 l -21.23490273762218 -4.628048217321841" fill="#ff0000" stroke="none" /><path d="M 119.83427380445688 106.89939002012753 l 20.527355954110575 7.14047996945427 a42.733816891216705,42.733816891216705 0 0,0 -0.24696041672815836,0.6907922388088854 l -20.401755367338474 -7.491807164644077" fill="#ff0000" stroke="none" /><path d="M 119.71291397450082 107.23885506374661 l 20.461666432172592 7.513807337505881 a42.7976396402605,42.7976396402605 0 0,0 -0.2591688841622818,0.6874762563561768 l -20.329666864195868 -7.863951874056217" fill="#ff0200" stroke="none" /><line stroke="#e1ed5e" stroke-width="0.3" x1="174.33088141563837" x2="178.70328620479359" y1="141.23008692659167" y2="143.65538615756765" /><path d="M 175.20536237346943 141.71514677278685 a86.0,86.0 0 0,1 -30.301960400862466,31.631185727798858" fill="none" id="id77" stroke="none" /><text fill="#e1ed5e" style="font-size:6.75px; font-family:Arial;" text-anchor="middle"><textPath startOffset="22.145653131862474" xlink:href="#id77">May</textPath></text><path d="M 118.18653347947321 110.5 l 54.559600438419636 31.499999999999986 a84.0,84.0 0 0,0 -0.7317051594809385,1.242595326825802 l -54.010821568808936 -32.43194649511934" fill="#4dd2ff" stroke="none" /><line stroke="#e1ed5e" stroke-width="0.3" x1="143.1302829299769" x2="145.66735839644613" y1="173.24464959558577" y2="177.55315839532614" /><path d="M 143.63769802327073 174.10635135553383 a86.0,86.0 0 0,1 -40.68552437913181,11.842963189579606" fill="none" id="id78" stroke="none" /><text fill="#e1ed5e" style="font-size:6.75px; font-family:Arial;" text-anchor="middle"><textPath startOffset="21.407464694133747" xlink:href="#id78">June</textPath></text><line stroke="#e1ed5e" stroke-width="0.3" x1="101.45913802915013" x2="101.54496967792366" y1="184.9874750549273" y2="189.98673829345242" /><path d="M 101.47630435890484 185.9873277026323 a86.0,86.0 0 0,1 -42.54439059252881,-10.42667462771756" fill="none" id="id79" stroke="none" /><text fill="#e1ed5e" style="font-size:6.75px; font-family:Arial;" text-anchor="middle"><textPath startOffset="22.145653131862474" xlink:href="#id79">July</textPath></text><line stroke="#e1ed5e" stroke-width="0.3" x1="58.13341422392154" x2="55.67067388415222" y1="173.97424548756322" y2="178.32567169271397" /><path d="M 57.64086615596768 174.84453072859336 a86.0,86.0 0 0,1 -31.369924170532247,-30.572349798747897" fill="none" id="id80" stroke="none" /><text fill="#e1ed5e" style="font-size:6.75px; font-family:Arial;" text-anchor="middle"><textPath startOffset="22.145653131862474" xlink:href="#id80">August</textPath></text><line stroke="#e1ed5e" stroke-width="0.3" x1="26.387840678322732" x2="22.057713659400548" y1="142.50000000000003" y2="145.00000000000006" /><path d="M 25.521815274538298 143.00000000000003 a86.0,86.0 0 0,1 -11.493303480769221,-40.785679425670985" fill="none" id="id81" stroke="none" /><text fill="#e1ed5e" style="font-size:6.75px; font-family:Arial;" text-anchor="middle"><textPath startOffset="21.40746469413373" xlink:href="#id81">September</textPath></text><line stroke="#e1ed5e" stroke-width="0.3" x1="15.003131293944662" x2="10.003315487706104" y1="100.72959589197737" y2="100.7725132973878" /><path d="M 14.003168132696942 100.73817937305945 a86.0,86.0 0 0,1 10.791469493833604,-42.45332614584628" fill="none" id="id82" stroke="none" /><text fill="#e1ed5e" style="font-size:6.75px; font-family:Arial;" text-anchor="middle"><textPath startOffset="22.145653131862435" xlink:href="#id82">October</textPath></text><line stroke="#e1ed5e" stroke-width="0.3" x1="26.387840678322718" x2="22.05771365940052" y1="57.49999999999999" y2="54.99999999999999" /><path d="M 25.521815274538284 56.99999999999999 a86.0,86.0 0 0,1 29.574782752854787,-30.34633250058573" fill="none" id="id83" stroke="none" /><text fill="#e1ed5e" style="font-size:6.75px; font-family:Arial;" text-anchor="middle"><textPath startOffset="21.40746469413373" xlink:href="#id83">November</textPath></text><line stroke="#e1ed5e" stroke-width="0.3" x1="56.869717070023135" x2="54.33264160355391" y1="26.7553504044142" y2="22.446841604673864" /><path d="M 56.362301976729285 25.89364864446614 a86.0,86.0 0 0,1 42.16139366436587,-11.88097634709845" fill="none" id="id84" stroke="none" /><text fill="#e1ed5e" style="font-size:6.75px; font-family:Arial;" text-anchor="middle"><textPath startOffset="22.145653131862474" xlink:href="#id84">December</textPath></text></svg>