<?xml version="1.0" encoding="utf-8" ?>
<svg baseProfile="full" height="200mm" version="1.1" viewBox="0,0,200,200" width="200mm" xmlns="http://www.w3.org/2000/svg" xmlns:ev="http://www.w3.org/2001/xml-events" xmlns:xlink="http://www.w3.org/1999/xlink"><defs /><rect fill="#1a1a1a" height="200" width="200" x="0" y="0" /><text alignment-baseline="middle" fill="#e1ed5e" style="dominant-baseline: central; font-size:9.0px; font-family:Arial;" text-anchor="middle" x="100.0" y="100.0">2022</text><line stroke="#e1ed5e" stroke-width="0.3" x1="100.0" x2="100.0" y1="15.0" y2="10.0" /><path d="M 100.0 14.0 a86.0,86.0 0 0,1 42.46469731375804,11.215312516191453" fill="none" id="id49" stroke="none" /><text fill="#e1ed5e" style="font-size:6.75px; font-family:Arial;" text-anchor="middle"><textPath startOffset="22.20632615414155" xlink:href="#id49">January</textPath></text><path d="M 100.0 79.0 l 0.0 -2.138891422296261 a23.13889142229626,23.13889142229626 0 0,0 0.3982979791031737,0.003428276453300764 l -0.03681749983064535 2.138574522451519" fill="#ff1602" stroke="none" /><path d="M 100.36148047927253 79.00311137660856 l 0.2154804201184428 -12.516356044602556 a33.51821075260811,33.51821075260811 0 0,0 0.5767899334246456,0.014896782284299408 l -0.4308969887379561 12.510792470175897" fill="#ffa40f" stroke="none" /><path d="M 102.52436894288641 79.15227682838746 l 0.7850579971190663 -6.483470589241587 a27.530827431528202,27.530827431528202 0 0,0 0.46997124505690596,0.06101575587343362 l -0.8965439706838184 6.468996510204017" fill="#ff5407" stroke="none" /><path d="M 103.2404852339499 79.25152402106235 l 0.29135506632887714 -1.8655149332983958 a22.88812969391269,22.88812969391269 0 0,0 0.388739399424963,0.06414533175282411 l -0.32342367189271526 1.860223338605947" fill="#ff1302" stroke="none" /><path d="M 103.59715602781102 79.31037775812273 l 0.7836827533475419 -4.507477573637988 a25.575097019161866,25.575097019161866 0 0,0 0.4330775846800293,0.07914216043801885 l -0.8611554591304721 4.493319931849231" fill="#ff3905" stroke="none" /><path d="M 103.95276090670814 79.375362276772 l 0.7855934350039315 -4.099053896026289 a25.17365545866565,25.17365545866565 0 0,0 0.4248756710024936,0.08522606258031035 l -0.8560355154735505 4.08492387736877" fill="#ff3304" stroke="none" /><path d="M 107.76421540070413 80.48803036053334 l 2.728014051951497 -6.85567370437568 a28.378504090160348,28.378504090160348 0 0,0 0.4523210988537424,0.18451313332886496 l -2.8456190203936265 6.807699684863236" fill="#ff5f08" stroke="none" /><path d="M 110.36928655335952 81.73862282372117 l 2.711388990706614 -4.775034114074283 a26.491136589950955,26.491136589950955 0 0,0 0.3945959088592361,0.22857541981483112 l -2.793181632031178 4.727654536869402" fill="#ff4506" stroke="none" /><line stroke="#e1ed5e" stroke-width="0.3" x1="143.23703022742887" x2="145.7803849466894" y1="26.81831364943548" y2="22.513508569990506" /><path d="M 143.74570117128098 25.957352633546492 a86.0,86.0 0 0,1 28.547481713284135,27.462654790039103" fill="none" id="id50" stroke="none" /><text fill="#e1ed5e" style="font-size:6.75px; font-family:Arial;" text-anchor="middle"><textPath startOffset="19.985693538727396" xlink:href="#id50">February</textPath></text><path d="M 110.99172775467656 82.1063720568725 l 1.5061366545515822 -2.4518664881038803 a23.87751575107256,23.87751575107256 0 0,0 0.34836254833610697,0.2181445958092286 l -1.5481183552599524 2.4255775509717075" fill="#ff2103" stroke="none" /><path d="M 111.2981086023043 82.29822771554956 l 4.0000496495215865 -6.267240873209995 a28.43496505448894,28.43496505448894 0 0,0 0.4103205729610401,0.26688391446314264 l -4.107337248266907 6.197458034587324" fill="#ff6008" stroke="none" /><path d="M 111.90073688211348 82.69761687909136 l 2.7582801029441675 -4.010240674058477 a25.867251728662765,25.867251728662765 0 0,0 0.36468989244800093,0.25548857545549747 l -2.8269011349758193 3.962167255839044" fill="#ff3d05" stroke="none" /><path d="M 112.77801427241765 83.33499621200491 l 1.117168018410166 -1.4570033231861361 a22.836007370664383,22.836007370664383 0 0,0 0.3098818414656498,0.24186769252826187 l -1.142082415035246 1.4375572414346502" fill="#ff1202" stroke="none" /><path d="M 113.34407831869373 83.78471172551755 l 0.382912818514702 -0.4653031545470041 a21.60260206788084,21.60260206788084 0 0,0 0.2850951592945029,0.23875899701128703 l -0.39086551476832226 0.4586430001418977" fill="#ff0000" stroke="none" /><path d="M 113.89432698308785 84.25364557470407 l 4.289755302591234 -4.861553026254064 a27.483571421924005,27.483571421924005 0 0,0 0.3520370825770671,0.31606236861687886 l -4.372803372764292 4.786991648867887" fill="#ff5307" stroke="none" /><path d="M 114.16331599549186 84.49514656593476 l 1.2723298245864132 -1.3928438408266406 a22.886488045936364,22.886488045936364 0 0,0 0.2885791239136872,0.26820284518869053 l -1.2961168322949472 1.3707364095633094" fill="#ff1302" stroke="none" /><path d="M 114.94478906791727 85.2469230424477 l 1.6343955010452593 -1.6134294366028348 a23.296606888593153,23.296606888593153 0 0,0 0.2792661184913914,0.28780828329023395 l -1.6619258832397599 1.5850569577624865" fill="#ff1802" stroke="none" /><path d="M 115.68641384162765 86.03803664274999 l 6.912150457065653 -6.152278804811629 a30.25355923054731,30.25355923054731 0 0,0 0.3428853929809407,0.39197727791069714 l -7.017027713624442 6.032385970697984" fill="#ff790b" stroke="none" /><path d="M 116.38621287248628 86.86637796730983 l 1.138188575622606 -0.9122631733445287 a22.458662857249216,22.458662857249216 0 0,0 0.23918039539712815,0.3037348130049126 l -1.1537230516136983 0.8925359663865776" fill="#ff0c01" stroke="none" /><path d="M 116.60985879189232 87.15038557335679 l 1.8010025385072226 -1.3932802494696535 a23.277024373446995,23.277024373446995 0 0,0 0.2424402509744089,0.3190229517555377 l -1.824718729705745 1.3620725218330823" fill="#ff1802" stroke="none" /><path d="M 117.2510076193507 88.02491185347247 l 0.7205726922275952 -0.5001981157162625 a21.87716769192112,21.87716769192112 0 0,0 0.21207886202559834,0.3111995608654989 l -0.7290760199219269 0.4877205315803571" fill="#ff0400" stroke="none" /><path d="M 117.45458315368197 88.32363383020206 l 5.7536139592354845 -3.8489205268429907 a27.922301843596735,27.922301843596735 0 0,0 0.26380374449148614,0.40179120139513447 l -5.819014339084895 3.749311261470182" fill="#ff5908" stroke="none" /><line stroke="#e1ed5e" stroke-width="0.3" x1="172.23445277983987" x2="176.4835382374775" y1="55.19839476539836" y2="52.563006222186495" /><path d="M 173.08426987136738 54.67131705675599 a86.0,86.0 0 0,1 12.851231095245387,41.99856678651699" fill="none" id="id51" stroke="none" /><text fill="#e1ed5e" style="font-size:6.75px; font-family:Arial;" text-anchor="middle"><textPath startOffset="22.20632615414155" xlink:href="#id51">March</textPath></text><path d="M 117.84615892207809 88.93136811851018 l 2.7166592902963678 -1.6849396983974874 a24.196757652182814,24.196757652182814 0 0,0 0.21648516645438431,0.35584469270915287 l -2.745260255036976 1.637927232481253" fill="#ff2503" stroke="none" /><path d="M 118.03404312379186 89.2402003453031 l 3.4658130301421437 -2.0678365682607116 a25.035815658939256,25.035815658939256 0 0,0 0.21762123525160235,0.3719852340048465 l -3.5008939398640733 2.00787192190197" fill="#ff3104" stroke="none" /><path d="M 118.21658344932153 89.55222093294921 l 3.4958588777583652 -2.0049841566623647 a25.030011260737254,25.030011260737254 0 0,0 0.21113691586685523,0.3755890140369575 l -3.529853434917653 1.9445116326906133" fill="#ff3104" stroke="none" /><path d="M 118.3937258080291 89.86733742301442 l 2.9339955234105886 -1.6162677943219386 a24.34972406540534,24.34972406540534 0 0,0 0.19907859087120633,0.36886239408631966 l -2.9613822135002597 1.5655244169031604" fill="#ff2703" stroke="none" /><path d="M 118.73160827565052 90.50648371742162 l 2.7361853414479858 -1.3867479881562204 a24.067536504332125,24.067536504332125 0 0,0 0.18410517868091855,0.3711448059704505 l -2.7596505330823122 1.33944359368682" fill="#ff2303" stroke="none" /><path d="M 118.89224826269711 90.83032412892265 l 1.6969846445117989 -0.8236605263701472 a22.886312155081757,22.886312155081757 0 0,0 0.16896834156310692,0.35589041963143037 l -1.7109111799166619 0.7943276910981765" fill="#ff1302" stroke="none" /><path d="M 119.04729006885535 91.15688171328212 l 0.658296381941017 -0.305628399219977 a21.72578429639005,21.72578429639005 0 0,0 0.15456103981117972,0.34055476338173024 l -0.6634597387155438 0.29425162699618396" fill="#ff0200" stroke="none" /><path d="M 119.34039704204932 91.81776055985345 l 0.8277170844673685 -0.3501778872009333 a21.898743636752812,21.898743636752812 0 0,0 0.14388341458622722,0.3484251011506204 l -0.8336221859397931 0.33587821559700975" fill="#ff0400" stroke="none" /><path d="M 119.7369772167798 92.82701384747503 l 5.999065365237964 -2.1802331897287783 a27.382961853089256,27.382961853089256 0 0,0 0.1571872233186866,0.4443894473810613 l -6.03570566936646 2.0766461159211023" fill="#ff5207" stroke="none" /><path d="M 119.97218684219823 93.5106431181261 l 1.1572578682483934 -0.37601587501440875 a22.21681293216569,22.21681293216569 0 0,0 0.11504555116764852,0.36472583623330956 l -1.1635589031842481 0.35603987235468004" fill="#ff0901" stroke="none" /><path d="M 120.18372546131832 94.20196356495316 l 3.302806807664733 -0.9487740132742618 a24.43637962644133,24.43637962644133 0 0,0 0.11265546796676738,0.40528165758347284 l -3.318649046197863 0.891781052271837" fill="#ff2903" stroke="none" /><path d="M 120.37134235888165 94.90015583598534 l 8.026217510033348 -2.0093157243420294 a29.273905800675642,29.273905800675642 0 0,0 0.11816509619770613,0.4898706107318475 l -8.059615406491874 1.8708598819507758" fill="#ff6c09" stroke="none" /><path d="M 120.45610955862082 95.25157060432595 l 6.300572361424205 -1.4625372886678687 a27.46809302671866,27.46809302671866 0 0,0 0.10294729045490232,0.4614925171742262 l -6.3248140388811445 1.3538666019436787" fill="#ff5307" stroke="none" /><path d="M 120.67395015179393 96.31383870115 l 5.9852156395078415 -1.0671627866777598 a27.07960875917843,27.07960875917843 0 0,0 0.0778708173203547,0.45959797183895773 l -6.002698318348419 0.9639790265229642" fill="#ff4e07" stroke="none" /><path d="M 120.73433829027371 96.67025291283417 l 0.9347268862843734 -0.15010867881715706 a21.946703209775436,21.946703209775436 0 0,0 0.056689490836529424,0.37351291463053715 l -0.9371722705602027 0.13399665179453776" fill="#ff0500" stroke="none" /><path d="M 120.83666639777658 97.38593545837742 l 6.827274245791167 -0.8565158735641181 a27.88079160190967,27.88079160190967 0 0,0 0.05564162542935891,0.4767034669107394 l -6.841006224224115 0.7388686683285259" fill="#ff5908" stroke="none" /><path d="M 120.87857604477298 97.74499172005257 l 5.997589706885876 -0.6477747534004386 a27.03247001014397,27.03247001014397 0 0,0 0.045984644222442646,0.4630590918165389 l -6.007851476790546 0.5444401308794646" fill="#ff4d07" stroke="none" /><path d="M 120.96714384426684 98.82574320788733 l 1.445141261993844 -0.08093457816967067 a22.447405842554417,22.447405842554417 0 0,0 0.018285434213544574,0.385976615946304 l -1.446320304440885 0.0560468556003669" fill="#ff0c01" stroke="none" /><line stroke="#e1ed5e" stroke-width="0.3" x1="184.98032266829074" x2="189.97916517819016" y1="98.17113171792111" y2="98.06355123074" /><path d="M 185.9800911702706 98.14961562048488 a86.0,86.0 0 0,1 -9.607161424134198,41.387399972396054" fill="none" id="id52" stroke="none" /><text fill="#e1ed5e" style="font-size:6.75px; font-family:Arial;" text-anchor="middle"><textPath startOffset="21.466115282336823" xlink:href="#id52">April</textPath></text><path d="M 120.9904718944345 100.63252640178507 l 7.735217349790698 0.2330928633665371 a28.73872856039385,28.73872856039385 0 0,0 -0.01915623354351074,0.4943372689477463 l -7.730058983395985 -0.3662073793282896" fill="#ff6409" stroke="none" /><path d="M 120.8583938346157 102.4346265915055 l 5.93221782011893 0.6924183791896691 a26.972491228723257,26.972491228723257 0 0,0 -0.05779625700691303,0.4606930345896191 l -5.919420053865169 -0.7944291680666831" fill="#ff4c07" stroke="none" /><path d="M 120.41448212921028 104.9243191809786 l 6.0770383183237 1.4658846678086646 a27.25133686355895,27.25133686355895 0 0,0 -0.1139218593787809,0.4550611989168385 l -6.050905144649858 -1.570273706122899" fill="#ff5007" stroke="none" /><path d="M 120.02730092923936 106.31721596034902 l 2.7334964883094695 0.8622274017112111 a23.866258736377766,23.866258736377766 0 0,0 -0.1269545733383138,0.39072600033243954 l -2.718249663954909 -0.909152302021446" fill="#ff2103" stroke="none" /><path d="M 119.9155931802556 106.66101706037122 l 2.2842705155684633 0.7640025952020989 a23.4086493629773,23.4086493629773 0 0,0 -0.1310986571581443,0.3810340636227096 l -2.270781027467088 -0.8032093619141089" fill="#ff1a02" stroke="none" /><path d="M 119.54520255179757 107.68017299344265 l 5.5913725427952805 2.1970971283438363 a27.007552139074757,27.007552139074757 0 0,0 -0.17374522329981754,0.43122139548809235 l -5.55272470523807 -2.2930178916747423" fill="#ff4d07" stroke="none" /><path d="M 119.26925614724726 108.34839909993367 l 3.0662816022870625 1.3284655293937433 a24.341691716378325,24.341691716378325 0 0,0 -0.16988056827419845,0.3830358342980658 l -3.0429599492815913 -1.3810497001844968" fill="#ff2703" stroke="none" /><line stroke="#e1ed5e" stroke-width="0.3" x1="174.80103733775053" x2="179.2010983576182" y1="140.37084112569926" y2="142.7455964860345" /><path d="M 175.68104954172406 140.8457921977663 a86.0,86.0 0 0,1 -30.038265399797805,32.042727171017184" fill="none" id="id53" stroke="none" /><text fill="#e1ed5e" style="font-size:6.75px; font-family:Arial;" text-anchor="middle"><textPath startOffset="22.206326154141568" xlink:href="#id53">May</textPath></text><path d="M 118.48025628344425 109.97397251340804 l 1.2439126838828802 0.6713516700113198 a22.41351753790029,22.41351753790029 0 0,0 -0.18616410503724426,0.3379419256622416 l -1.2321721693941263 -0.6926641140713664" fill="#ff0c01" stroke="none" /><path d="M 118.12598468904814 110.60418214915192 l 1.7862494715903663 1.0450033521221807 a23.06947316501168,23.06947316501168 0 0,0 -0.2034717913203195,0.34103042592842553 l -1.7679968045718197 -1.0755958719367102" fill="#ff1502" stroke="none" /><path d="M 117.94076556474637 110.91462005526583 l 5.0540455443267485 3.0747287042605898 a26.91585437354006,26.91585437354006 0 0,0 -0.244210571986052,0.39374520038045496 l -5.000370332672733 -3.1612702360063185" fill="#ff4b07" stroke="none" /><path d="M 116.93607887273984 112.41649034213515 l 4.732906893526176 3.469875947984747 a26.86859836393586,26.86859836393586 0 0,0 -0.2766681750426577,0.3706422329366338 l -4.672477451788427 -3.5508310604306956" fill="#ff4b06" stroke="none" /><path d="M 115.56566222782051 114.09645910891815 l 4.740187637849637 4.292773428304232 a27.395098322057088,27.395098322057088 0 0,0 -0.3195489398713454,0.346807262548235 l -4.665592289982569 -4.373731945653801" fill="#ff5207" stroke="none" /><path d="M 115.32070863581623 114.36230785411682 l 4.358430995145391 4.085785403350429 a26.97407424641471,26.97407424641471 0 0,0 -0.3204692765284698,0.33601075522081714 l -4.287455167237956 -4.160203275153753" fill="#ff4c07" stroke="none" /><path d="M 114.55890576462653 115.13401014063108 l 1.0745107364742794 1.116955947440042 a22.549891580504966,22.549891580504966 0 0,0 -0.2820499265033852,0.266695810177724 l -1.0551249755800867 -1.1352863943636873" fill="#ff0e01" stroke="none" /><path d="M 114.0293411484842 115.62618273729858 l 28.32666199699785 31.550847043918672 a63.401128865643585,63.401128865643585 0 0,0 -0.8183505149232179,0.7220991814368992 l -27.779369129168046 -32.03376936712786" fill="#34ff58" stroke="none" /><path d="M 113.48314897796784 116.09983520530334 l 3.7704080899554 4.502134405265137 a26.872409332452328,26.872409332452328 0 0,0 -0.35718534107913624,0.29393921865391487 l -3.692352620331573 -4.56636874277623" fill="#ff4b07" stroke="none" /><path d="M 112.63410532772338 116.77436683061366 l 3.5408487295269238 4.701203127574356 a26.885483885978054,26.885483885978054 0 0,0 -0.3720631283254631,0.2752434075620255 l -3.4594006307828966 -4.761456483876151" fill="#ff4b07" stroke="none" /><path d="M 111.45004920935366 117.60387380957326 l 3.208428398174405 4.932797022599147 a26.88442854085042,26.88442854085042 0 0,0 -0.39010355323647666,0.24898254478632326 l -3.123043042890998 -4.987293996209279" fill="#ff4b07" stroke="none" /><line stroke="#e1ed5e" stroke-width="0.3" x1="143.8653032363475" x2="146.44561519142675" y1="172.8068346515853" y2="177.08958963109032" /><path d="M 144.38136562736335 173.6633856474863 a86.0,86.0 0 0,1 -40.68145358897372,12.25698825130547" fill="none" id="id54" stroke="none" /><text fill="#e1ed5e" style="font-size:6.75px; font-family:Arial;" text-anchor="middle"><textPath startOffset="21.466115282336833" xlink:href="#id54">June</textPath></text><path d="M 110.5260780823613 118.17145234162733 l 2.9445256813551683 5.083214058339973 a26.874461392422734,26.874461392422734 0 0,0 -0.4022866703350817,0.2284288704534257 l -2.856590244098888 -5.133146094588026" fill="#ff4b07" stroke="none" /><path d="M 109.89434966115114 118.52300852407294 l 0.7593897020605612 1.4216378444345854 a22.61174653104148,22.61174653104148 0 0,0 -0.3448927677932162,0.1804315954705431 l -0.7348060317408495 -1.4344988588498453" fill="#ff0f01" stroke="none" /><path d="M 108.59647513512805 119.15986991738527 l 1.6250364488173898 3.62188995849252 a24.969739327892196,24.969739327892196 0 0,0 -0.3936649738404905,0.17257115578450763 l -1.5624508003191455 -3.649325667571482" fill="#ff3004" stroke="none" /><path d="M 107.93186726928326 119.44442032107085 l 0.3136414138316998 0.768870087407498 a21.83038072459587,21.83038072459587 0 0,0 -0.34916022797017354,0.1389380605551984 l -0.30036010981966 -0.7741549923687653" fill="#ff0300" stroke="none" /><path d="M 107.2578585660854 119.70592522655815 l 0.5000791738315964 1.357772780656367 a22.44693680027547,22.44693680027547 0 0,0 -0.36372635794830055,0.13041933119629617 l -0.47663325525356104 -1.3661796528926233" fill="#ff0c01" stroke="none" /><path d="M 106.91757812671514 119.82793768551818 l 1.9333785262941352 5.5416662074017955 a26.869243297069417,26.869243297069417 0 0,0 -0.4380073920790666,0.14859588861091766 l -1.8377014012778417 -5.574125082910836" fill="#ff4b06" stroke="none" /><path d="M 106.57524785965236 119.94407469862006 l 1.0427458393641131 3.1628618959852672 a24.330317441113788,24.330317441113788 0 0,0 -0.39887661724462325,0.1277076967333174 l -0.9881478770285496 -3.180342439378291" fill="#ff2703" stroke="none" /><path d="M 105.88484417918355 120.15858648285463 l 1.6630450368541385 5.696775679956482 a26.934557434413186,26.934557434413186 0 0,0 -0.44617585868232007,0.1260937543938154 l -1.5647380100672128 -5.724558227688816" fill="#ff4c07" stroke="none" /><path d="M 105.18746579009965 120.34920634021253 l 2.3461559934149916 9.20341730396468 a30.497754367025586,30.497754367025586 0 0,0 -0.5098160234882247,0.1253003748111793 l -2.1873866851835557 -9.242438937089888" fill="#ff7c0b" stroke="none" /><path d="M 104.48393922423573 120.51570834832081 l 1.2529433070951002 5.732686858556824 a26.86801206108717,26.86801206108717 0 0,0 -0.45267295626814746,0.09486201924270339 l -1.1540788893975746 -5.753404858526069" fill="#ff4b06" stroke="none" /><path d="M 103.41894727170886 120.7198165907248 l 0.9553821518174355 5.789894194482601 a26.868187951941778,26.868187951941778 0 0,0 -0.45696919744092046,0.07136919059406724 l -0.8555770907679979 -5.805481692423774" fill="#ff4b06" stroke="none" /><path d="M 103.06178313531738 120.77559828337769 l 0.3651213360040516 2.477515181924874 a23.504275357598207,23.504275357598207 0 0,0 -0.4007718566870407,0.05554332749534881 l -0.3224208881301805 -2.483433074912826" fill="#ff1b02" stroke="none" /><path d="M 101.98527174616119 120.90594882070398 l 0.5603520173145223 5.90079953447566 a26.92734590937433,26.92734590937433 0 0,0 -0.4618112684476295,0.03984701944213721 l -0.45869643112535124 -5.909570806196461" fill="#ff4c07" stroke="none" /><path d="M 100.90346689309514 120.98055641714683 l 0.2527122675547161 5.868553709337169 a26.873992350143784,26.873992350143784 0 0,0 -0.4623345954932396,0.01592373828135489 l -0.15165732038682425 -5.872034246044618" fill="#ff4b07" stroke="none" /><line stroke="#e1ed5e" stroke-width="0.3" x1="102.19456741930631" x2="102.32365962044197" y1="184.97166512339345" y2="189.96999836594603" /><path d="M 102.22038585953345 185.97133177190398 a86.0,86.0 0 0,1 -42.740103519485714,-10.115201625700543" fill="none" id="id55" stroke="none" /><text fill="#e1ed5e" style="font-size:6.75px; font-family:Arial;" text-anchor="middle"><textPath startOffset="22.20632615414155" xlink:href="#id55">July</textPath></text><path d="M 100.18074693466247 120.99922214144158 l 0.019491359993683607 2.264510870463869 a23.264594753054823,23.264594753054823 0 0,0 -0.40047658931227653,0.0 l 0.01949135999368205 -2.264510870463869" fill="#ff1802" stroke="none" /><path d="M 99.45781275523022 120.99299961872073 l -0.15149080871122808 5.865587064603265 a26.867543018808224,26.867543018808224 0 0,0 -0.46222364253340165,-0.015919916837077497 l 0.2524348029192728 -5.862110349340093" fill="#ff4b06" stroke="none" /><path d="M 97.65516085044442 120.86867818915974 l -0.8975649635487201 7.988178797557697 a29.038446576642812,29.038446576642812 0 0,0 -0.4962429596925889,-0.060088111553582124 l 1.0349353462926982 -7.971545157278767" fill="#ff6809" stroke="none" /><path d="M 92.7421414339146 119.70592522655815 l -2.302585062604066 6.251784690802907 a27.662335160488773,27.662335160488773 0 0,0 -0.44540282290814914,-0.16841323601929983 l 2.4098581062724977 -6.2112232046769735" fill="#ff5607" stroke="none" /><path d="M 92.40401165467489 119.57807347666478 l -0.37878499763390133 0.9762890855538048 a22.047195518040446,22.047195518040446 0 0,0 -0.3526280146140092,-0.14031796442773958 l 0.39553408828976866 -0.9696242767199986" fill="#ff0601" stroke="none" /><path d="M 90.42595943632237 118.69057910512821 l -0.8252066865006719 1.6109803117647286 a22.810034154467534,22.810034154467534 0 0,0 -0.3479172120646336,-0.18201384176928478 l 0.8528148010918011 -1.5965370510507269" fill="#ff1101" stroke="none" /><line stroke="#e1ed5e" stroke-width="0.3" x1="58.666819895761336" x2="56.23545636021788" y1="174.27360380694188" y2="178.64263932499728" /><path d="M 58.180547188652646 175.14741091055294 a86.0,86.0 0 0,1 -31.652253787137756,-30.449443065178592" fill="none" id="id56" stroke="none" /><text fill="#e1ed5e" style="font-size:6.75px; font-family:Arial;" text-anchor="middle"><textPath startOffset="22.20632615414155" xlink:href="#id56">August</textPath></text><path d="M 87.07902340077011 116.55440617244103 l -0.7046755983249146 0.9028331554422776 a22.145283984625838,22.145283984625838 0 0,0 -0.2984788906426015,-0.2371296825175084 l 0.7201119816848742 -0.8905695589196385" fill="#ff0801" stroke="none" /><path d="M 86.24171649860922 115.8653595955263 l -1.018916814303627 1.1749635523371076 a22.55522693642802,22.55522693642802 0 0,0 -0.2911317496688635,-0.25688991977466175 l 1.038990916879078 -1.157250490790157" fill="#ff0e01" stroke="none" /><path d="M 84.43433777217949 114.09645910891817 l -15.320877475114012 13.874778964089735 a41.66975514876272,41.66975514876272 0 0,0 -0.47690270892027187,-0.5358052490828359 l 15.557439033682623 -13.608999545266036" fill="#f4ff19" stroke="none" /><line stroke="#e1ed5e" stroke-width="0.3" x1="26.63291911575756" x2="22.317208475507996" y1="142.92168965132927" y2="145.44649492493687" /><path d="M 25.769776987707644 143.4266507060508 a86.0,86.0 0 0,1 -11.730757126820373,-40.83630448921669" fill="none" id="id57" stroke="none" /><text fill="#e1ed5e" style="font-size:6.75px; font-family:Arial;" text-anchor="middle"><textPath startOffset="21.46611528233685" xlink:href="#id57">September</textPath></text><path d="M 81.51974371655577 109.97397251340807 l -2.0893027591834303 1.1276168453871351 a23.374174755474485,23.374174755474485 0 0,0 -0.18804800939288577,-0.3557159660286935 l 2.108403276801202 -1.0914858642723153" fill="#ff1a02" stroke="none" /><path d="M 80.45479744820244 107.68017299344265 l -4.679640220099496 1.8388372462341533 a26.027957339487962,26.027957339487962 0 0,0 -0.1602649416424716,-0.41840119053728936 l 4.710599441335477 -1.758012488863706" fill="#ff3f05" stroke="none" /><path d="M 80.20201598880116 107.00284435728193 l -8.382024198656815 2.9648478768828994 a29.890930918634194,29.890930918634194 0 0,0 -0.16740226417494897,-0.48654933895529934 l 8.431817293774992 -2.8201258348383034" fill="#ff740a" stroke="none" /><path d="M 79.67330655649465 105.27499134158121 l -6.886953038546876 1.7872369526888627 a28.11507822024513,28.11507822024513 0 0,0 -0.11753265549747358,-0.4694845345240329 l 6.9166970083394075 -1.668424578767438" fill="#ff5c08" stroke="none" /><path d="M 79.35854240842038 103.8639653848113 l -1.7149316306019173 0.32102560725493323 a22.744720017123765,22.744720017123765 0 0,0 -0.06872540014693197,-0.3854485416151089 l 1.720203473088038 -0.29145831490661067" fill="#ff1101" stroke="none" /><path d="M 79.18660465613746 102.79330883721812 l -2.451398925975596 0.32899554207016224 a23.473377197472384,23.473377197472384 0 0,0 -0.0502984069888432,-0.400927792745149 l 2.4566988422112876 -0.2867499950376046" fill="#ff1b02" stroke="none" /><path d="M 79.10278846688536 102.07522291339032 l -3.747098947579747 0.37211020151831864 a24.765530045694398,24.765530045694398 0 0,0 -0.03847549600728574,-0.4245738923290315 l 3.752949039864108 -0.307554920640721" fill="#ff2d04" stroke="none" /><path d="M 79.07016306316243 101.71520430193888 l -5.855126411745946 0.4798287745924519 a26.874754543847075,26.874754543847075 0 0,0 -0.033815404766653824,-0.46138433157679126 l 5.862518375176935 -0.3789713065189" fill="#ff4b07" stroke="none" /><path d="M 79.0235259727143 100.99374915477108 l -2.945330977581602 0.1395334680979045 a23.948634286618336,23.948634286618336 0 0,0 -0.01596332386377426,-0.4119424574889173 l 2.947296434296577 -0.08881376359499045" fill="#ff2203" stroke="none" /><path d="M 79.0095281055655 100.63252640178507 l -4.602850484023737 0.13870219160657243 a25.604939834160053,25.604939834160053 0 0,0 -0.00948350557067869,-0.4406612391498311 l 4.604556052279423 -0.059451136666612496" fill="#ff3905" stroke="none" /><line stroke="#e1ed5e" stroke-width="0.3" x1="15.007084014347285" x2="10.007500721073583" y1="101.09737516637583" y2="101.16192664675087" /><path d="M 14.007167355692545 101.11028546245083 a86.0,86.0 0 0,1 10.666146001902534,-42.60595125391555" fill="none" id="id58" stroke="none" /><text fill="#e1ed5e" style="font-size:6.75px; font-family:Arial;" text-anchor="middle"><textPath startOffset="22.20632615414155" xlink:href="#id58">October</textPath></text><path d="M 79.00175016825051 100.2711162175752 l -1.469797366844456 0.018977100753337573 a22.46991987194401,22.46991987194401 0 0,0 -0.0016645959642587335,-0.38679347901098304 l 1.4699062600982176 0.0063258564613208655" fill="#ff0d01" stroke="none" /><path d="M 79.03285615573316 98.82574320788736 l -3.4328178347244735 -0.1922536368544471 a24.438197165272257,24.438197165272257 0 0,0 0.0271373483243702,-0.41980276730331945 l 3.42899989539569 0.25131546841077834" fill="#ff2903" stroke="none" /><path d="M 79.08570108090925 98.10471618934814 l -62.742896757272284 -5.685851431955563 a84.0,84.0 0 0,0 0.1428914972710853,-1.4388978771822787 l 62.635728134318974 6.7650248398422725" fill="#4dd2ff" stroke="none" /><path d="M 79.32604984820605 96.31383870115002 l -5.730670526287892 -1.0217774424027857 a26.821049202907318,26.821049202907318 0 0,0 0.08495155579568396,-0.4538146079641886 l 5.712233246582347 1.1202701278295468" fill="#ff4a06" stroke="none" /><path d="M 79.3925641242962 95.95851677861259 l -0.7791291912616133 -0.15280103612936324 a21.793971317692385,21.793971317692385 0 0,0 0.07536635913805878,-0.3675131329748306 l 0.7763835362085599 0.16618982526759632" fill="#ff0300" stroke="none" /><path d="M 79.54389044137918 95.25157060432595 l -5.717689461490419 -1.3272340293482132 a26.869712339348368,26.869712339348368 0 0,0 0.10846048918114252,-0.4496387493862264 l 5.693996172048462 1.4254580103938364" fill="#ff4b06" stroke="none" /><path d="M 79.81627453868168 94.20196356495316 l -5.654854261984198 -1.6244300938743947 a26.88354908657739,26.88354908657739 0 0,0 0.13159382432419583,-0.4436689568268877 l 5.626054540548296 1.7215284374478217" fill="#ff4b07" stroke="none" /><path d="M 80.2630227832202 92.82701384747504 l -7.968042508481925 -2.8958162107761787 a29.477939192018837,29.477939192018837 0 0,0 0.17742267877615336,-0.47540457011394144 l 7.917015241204143 3.0325439179194618" fill="#ff6e0a" stroke="none" /><path d="M 80.52162464483688 92.15188598940014 l -0.5869996656686101 -0.23651050030361567 a21.632855294873107,21.632855294873107 0 0,0 0.14213642292483492,-0.34419462227242076 l 0.5828415558575755 0.24657969302934774" fill="#ff0000" stroke="none" /><path d="M 80.95270993114464 91.15688171328213 l -5.336726182219145 -2.4776910900493383 a26.88384223800173,26.88384223800173 0 0,0 0.1984818789072951,-0.41805345616870826 l 5.293286109470098 2.569186961858579" fill="#ff4b07" stroke="none" /><path d="M 81.6062741919709 89.86733742301443 l -5.16341718265873 -2.844402738310493 a26.89504062241166,26.89504062241166 0 0,0 0.22686909206618547,-0.4035748000521785 l 5.113690449300114 2.9328610482974558" fill="#ff4b07" stroke="none" /><line stroke="#e1ed5e" stroke-width="0.3" x1="26.266209847984243" x2="21.928928074336255" y1="57.711370442889674" y2="55.22380399835377" /><path d="M 25.398753493254645 57.213857153982495 a86.0,86.0 0 0,1 29.58750427330803,-30.492523968695096" fill="none" id="id59" stroke="none" /><text fill="#e1ed5e" style="font-size:6.75px; font-family:Arial;" text-anchor="middle"><textPath startOffset="21.46611528233685" xlink:href="#id59">November</textPath></text><path d="M 82.54541684631803 88.32363383020206 l -4.883800585825521 -3.2670527527518347 a26.875809888974715,26.875809888974715 0 0,0 0.26053606470158946,-0.38230452648776353 l 4.826840055455191 3.350635302510014" fill="#ff4b07" stroke="none" /><path d="M 82.7489923806493 88.02491185347247 l -4.762686400883496 -3.3061019230478093 a26.797714349529564,26.797714349529564 0 0,0 0.2663021334689211,-0.3766654822695121 l 4.705071647610697 3.3875939056491076" fill="#ff4a06" stroke="none" /><path d="M 82.95767976084542 87.72973835380427 l -4.790193638363435 -3.448880695459658 a26.902603929159724,26.902603929159724 0 0,0 0.273813918114241,-0.3734818765895576 l 4.730117107735561 3.530825015720716" fill="#ff4b07" stroke="none" /><path d="M 84.31358615837235 86.03803664274999 l -5.126489326437328 -4.562920298399091 a27.863026625594447,27.863026625594447 0 0,0 0.3219590763040454,-0.3555152534553419 l 5.0471866095172375 4.650488339123989" fill="#ff5808" stroke="none" /><path d="M 84.80347519578584 85.50635884689758 l -16.512426497915506 -15.748678550598587 a43.81843782863205,43.81843782863205 0 0,0 0.52526984334142,-0.5413367460860976 l 16.238892390870966 16.030579492234807" fill="#dbff1b" stroke="none" /><path d="M 85.31137513191541 84.99185889309783 l -0.8568102501620928 -0.8754481274971581 a22.224962541762444,22.224962541762444 0 0,0 0.27571310248644043,-0.2652357861447481 l 0.8416139040632248 0.8900670004042197" fill="#ff0901" stroke="none" /><path d="M 86.10567301691215 84.25364557470407 l -16.334888863881257 -18.512228038218453 a45.68868528565977,45.68868528565977 0 0,0 0.5941839658661712,-0.5152704800131132 l 16.01381109936831 18.790663511651246" fill="#c5ff1e" stroke="none" /><path d="M 88.39885842347998 82.49532879139004 l -2.5938111166674083 -3.9137364607630394 a25.6952304728579,25.6952304728579 0 0,0 0.3707858149213499,-0.24116940810328535 l 2.526058275961771 3.95780479302586" fill="#ff3a05" stroke="none" /><line stroke="#e1ed5e" stroke-width="0.3" x1="56.762969772571076" x2="54.21961505331055" y1="26.818313649435495" y2="22.513508569990535" /><path d="M 56.25429882871897 25.957352633546506 a86.0,86.0 0 0,1 42.265352541879196,-11.944610805530505" fill="none" id="id60" stroke="none" /><text fill="#e1ed5e" style="font-size:6.75px; font-family:Arial;" text-anchor="middle"><textPath startOffset="22.20632615414155" xlink:href="#id60">December</textPath></text><path d="M 90.26544431104013 81.39251694778311 l -2.736153650394224 -5.230123932180401 a26.902603929159724,26.902603929159724 0 0,0 0.4121728890838314,-0.21113096267060424 l 2.645720273721629 5.27644742016351" fill="#ff4b07" stroke="none" /><path d="M 97.83486435360386 79.11191278185805 l -0.07656447404145122 -0.7386536793900185 a21.742611188147375,21.742611188147375 0 0,0 0.37260092562194963,-0.03538294753205142 l 0.06383842132926526 0.7398621714372504" fill="#ff0200" stroke="none" /><path d="M 99.27714615592234 79.0124445844662 l -0.044040045188489994 -1.2786718870886193 a22.279430076405497,22.279430076405497 0 0,0 0.38339012441195564,-0.009901835802516986 l 0.02202328558165536 1.279240515033496" fill="#ff0a01" stroke="none" /><path d="M 99.63851952072746 79.00311137660856 l -0.05061056389647396 -2.9397559044954567 a23.94019152559724,23.94019152559724 0 0,0 0.41209104316900896,-0.003546997710341072 l 7.201392281405664e-16 2.940191525597239" fill="#ff2203" stroke="none" /></svg>