<?xml version="1.0" encoding="utf-8" ?>
<svg baseProfile="full" height="200mm" version="1.1" viewBox="0,0,200,200" width="200mm" xmlns="http://www.w3.org/2000/svg" xmlns:ev="http://www.w3.org/2001/xml-events" xmlns:xlink="http://www.w3.org/1999/xlink"><defs /><rect fill="#1a1a1a" height="200" width="200" x="0" y="0" /><text alignment-baseline="middle" fill="#e1ed5e" style="dominant-baseline: central; font-size:9.0px; font-family:Arial;" text-anchor="middle" x="100.0" y="100.0">2023</text><line stroke="#e1ed5e" stroke-width="0.3" x1="100.0" x2="100.0" y1="15.0" y2="10.0" /><path d="M 100.0 14.0 a86.0,86.0 0 0,1 42.46469731375804,11.215312516191453" fill="none" id="id61" stroke="none" /><text fill="#e1ed5e" style="font-size:6.75px; font-family:Arial;" text-anchor="middle"><textPath startOffset="22.20632615414155" xlink:href="#id61">January</textPath></text><path d="M 106.74666289553966 80.11325718540242 l 10.011714084973244 -29.510942850394393 a52.16296145809149,52.16296145809149 0 0,0 0.8478170222381183,0.2957867117352647 l -10.518213111274635 29.334235285486923" fill="#8cff24" stroke="none" /><path d="M 107.4271985657038 80.35727306442388 l 2.3064495197652284 -6.099871668524044 a27.521360575806828,27.521360575806828 0 0,0 0.44167437315054087,0.17136279495932402 l -2.4111070579154363 6.059266169674173" fill="#ff3304" stroke="none" /><path d="M 107.76421540070413 80.48803036053334 l 3.432672838014466 -8.626526279974906 a30.284406199210586,30.284406199210586 0 0,0 0.4826990121339627,0.19690504689984434 l -3.580655719736816 8.56616034689148" fill="#ff5b08" stroke="none" /><path d="M 108.76106565485865 80.91482961587045 l 4.501055961873344 -9.805133681793059 a31.788890178778736,31.788890178778736 0 0,0 0.4953341669095534,0.2325660330700815 l -4.669168340082495 9.726202666082974" fill="#ff700a" stroke="none" /><path d="M 109.41281617654863 81.2277094730956 l 2.5527647075040227 -5.091063060966396 a26.695219990712793,26.695219990712793 0 0,0 0.4089955744534685,0.20950341870936323 l -2.640020769546247 5.046367116944532" fill="#ff2703" stroke="none" /><path d="M 110.05341064243156 81.56283822128135 l 10.431551465295247 -19.130642207822998 a42.78987694450894,42.78987694450894 0 0,0 0.6436329218258231,0.35818102414949177 l -10.759308476193105 18.948245786113326" fill="#fcff18" stroke="none" /><line stroke="#e1ed5e" stroke-width="0.3" x1="143.23703022742887" x2="145.7803849466894" y1="26.81831364943548" y2="22.513508569990506" /><path d="M 143.74570117128098 25.957352633546492 a86.0,86.0 0 0,1 28.547481713284135,27.462654790039103" fill="none" id="id62" stroke="none" /><text fill="#e1ed5e" style="font-size:6.75px; font-family:Arial;" text-anchor="middle"><textPath startOffset="19.985693538727396" xlink:href="#id62">February</textPath></text><path d="M 110.99172775467656 82.1063720568725 l 7.5485186323146625 -12.288366937667005 a35.42165370327374,35.42165370327374 0 0,0 0.5167864898088176,0.3236116525081979 l -7.758924274495743 12.156610943835863" fill="#ffa20f" stroke="none" /><path d="M 112.19680574252982 82.90503203632743 l 17.732554134814258 -24.85383888600522 a51.531242744369635,51.531242744369635 0 0,0 0.7176453949857496,0.5213998994843492 l -18.157744846153797 24.544919751704196" fill="#93ff23" stroke="none" /><path d="M 113.6212207817346 84.01681056812373 l 19.931748624166392 -23.387985487745805 a51.72901671697237,51.72901671697237 0 0,0 0.6727388216814456,0.5833924768837184 l -20.3313812444946 23.041428017442417" fill="#91ff24" stroke="none" /><path d="M 115.4437574822437 85.77008943001954 l 22.432801782819094 -20.66963066278594 a51.503511725098676,51.503511725098676 0 0,0 0.5951264119381793,0.6571534482176329 l -22.785271835373308 20.280424427298758" fill="#94ff23" stroke="none" /><path d="M 117.04232023915458 87.72973835380427 l 24.808703812268273 -17.861962608831142 a51.56994427675877,51.56994427675877 0 0,0 0.5124760270465014,0.7248609966602523 l -25.112492459118656 17.432275111839097" fill="#93ff23" stroke="none" /><path d="M 117.45458315368197 88.32363383020206 l 25.3693268033548 -16.970989603653376 a51.52240538657999,51.52240538657999 0 0,0 0.4867723134833544,0.7413876289639934 l -25.657695752196076 16.53178391071171" fill="#94ff23" stroke="none" /><line stroke="#e1ed5e" stroke-width="0.3" x1="172.23445277983987" x2="176.4835382374775" y1="55.19839476539836" y2="52.563006222186495" /><path d="M 173.08426987136738 54.67131705675599 a86.0,86.0 0 0,1 12.851231095245387,41.99856678651699" fill="none" id="id63" stroke="none" /><text fill="#e1ed5e" style="font-size:6.75px; font-family:Arial;" text-anchor="middle"><textPath startOffset="22.20632615414155" xlink:href="#id63">March</textPath></text><path d="M 117.84615892207809 88.93136811851018 l 5.413514425747625 -3.3575963671154976 a27.37021128395635,27.37021128395635 0 0,0 0.24487763322969167,0.40251444279128124 l -5.470507857263541 3.263914151117135" fill="#ff3104" stroke="none" /><path d="M 118.03404312379186 89.2402003453031 l 13.097134841775183 -7.814251412215809 a36.25114638959833,36.25114638959833 0 0,0 0.31510933632290944,0.5386239999679733 l -13.22970385256842 7.587647999893941" fill="#ffae10" stroke="none" /><path d="M 118.73160827565052 90.50648371742162 l 27.20421435227037 -13.787585566998647 a51.498635941490605,51.498635941490605 0 0,0 0.393940010026581,0.7941590216683375 l -27.43751437525036 13.31726695683136" fill="#94ff23" stroke="none" /><path d="M 120.45610955862082 95.25157060432595 l 29.86487506491938 -6.932464369630473 a51.65892732760622,51.65892732760622 0 0,0 0.19361178772078286,0.8679236808957819 l -29.979781239642204 6.417362519184728" fill="#92ff23" stroke="none" /><path d="M 120.78858239683441 97.02765380044208 l 32.33916910731144 -4.623846136214415 a53.668054910610635,53.668054910610635 0 0,0 0.12288451442313814,0.9156323662637242 l -32.413969620792415 4.066495427886027" fill="#7cff26" stroke="none" /><path d="M 120.91429891909075 98.10471618934814 l 13.948834638674407 -1.2640634319330506 a35.00599315068494,35.00599315068494 0 0,0 0.0492176198659621,0.6005796260243786 l -13.968526742359865 1.023769888700903" fill="#ff9d0e" stroke="none" /><path d="M 120.94382443527127 98.46500227214037 l 30.539531552969482 -2.2382784810189116 a51.621444741119106,51.621444741119106 0 0,0 0.057322932517196216,0.8867603943105494 l -30.573535076491094 1.712259022455327" fill="#92ff23" stroke="none" /><path d="M 120.98425023603335 99.18683210126433 l 62.95275070810006 -2.4395036962070047 a84.0,84.0 0 0,0 0.04355322217741975,1.4453194103000038 l -62.98541562473312 1.355514138482002" fill="#4dd2ff" stroke="none" /><line stroke="#e1ed5e" stroke-width="0.3" x1="184.98032266829074" x2="189.97916517819016" y1="98.17113171792111" y2="98.06355123074" /><path d="M 185.9800911702706 98.14961562048488 a86.0,86.0 0 0,1 -9.607161424134198,41.387399972396054" fill="none" id="id64" stroke="none" /><text fill="#e1ed5e" style="font-size:6.75px; font-family:Arial;" text-anchor="middle"><textPath startOffset="21.466115282336823" xlink:href="#id64">April</textPath></text><path d="M 120.95626037817324 101.35467743843564 l 15.296926653454694 0.9888406156865218 a36.3288541908521,36.3288541908521 0 0,0 -0.04571111178589575,0.6236918026711462 l -15.277638983004461 -1.2520055548544384" fill="#ffaf10" stroke="none" /><path d="M 120.81339534386255 102.79330883721812 l 30.47891481498934 4.090491757589807 a51.752176689110755,51.752176689110755 0 0,0 -0.12609282058356544,0.8818928934794377 l -30.403987943389176 -4.614530123049654" fill="#91ff24" stroke="none" /><path d="M 120.41448212921028 104.9243191809786 l 3.013648228181684 0.7269430437093005 a24.100084165312282,24.100084165312282 0 0,0 -0.10074831972624669,0.40243945642641255 l -3.0006885941603767 -0.778710339533109" fill="#ff0000" stroke="none" /><path d="M 120.23288151984713 105.62410040840565 l 29.435918309370116 8.182253230867282 a51.55196482470397,51.55196482470397 0 0,0 -0.24501265107115525,0.8529211810187685 l -29.29071302141286 -8.687731887390632" fill="#93ff23" stroke="none" /><path d="M 119.41010516605496 108.01547362559984 l 28.19636620259314 11.64379212276958 a51.505949616902726,51.505949616902726 0 0,0 -0.3454553555380534,0.8165544146296202 l -27.99175986586278 -12.127421063065364" fill="#94ff23" stroke="none" /><path d="M 119.26925614724726 108.34839909993367 l 27.99203948706296 12.127542208861449 a51.506254353378225,51.506254353378225 0 0,0 -0.35946194131363174,0.8104917824811705 l -27.779136461018055 -12.607582327835306" fill="#94ff23" stroke="none" /><line stroke="#e1ed5e" stroke-width="0.3" x1="174.80103733775053" x2="179.2010983576182" y1="140.37084112569926" y2="142.7455964860345" /><path d="M 175.68104954172406 140.8457921977663 a86.0,86.0 0 0,1 -30.038265399797805,32.042727171017184" fill="none" id="id65" stroke="none" /><text fill="#e1ed5e" style="font-size:6.75px; font-family:Arial;" text-anchor="middle"><textPath startOffset="22.206326154141568" xlink:href="#id65">May</textPath></text><path d="M 115.80600337817218 113.82643327865902 l 23.24614642410248 20.334760459601988 a51.885041792430926,51.885041792430926 0 0,0 -0.5938147919255663,0.667157213715762 l -22.892672782528575 -20.731891843058616" fill="#8fff24" stroke="none" /><path d="M 115.56566222782051 114.09645910891815 l 22.61732825246541 20.482536380239786 a51.513568028790345,51.513568028790345 0 0,0 -0.6008777869337586,0.6521341629123805 l -22.261404057535927 -20.8688217979535" fill="#94ff23" stroke="none" /><path d="M 115.07121518719521 114.62390073753431 l 5.462090772292201 5.299975634431152 a28.61079347573717,28.61079347573717 0 0,0 -0.34599901084587487,0.35049517125663654 l -5.37005113639079 -5.393211299668453" fill="#ff4306" stroke="none" /><path d="M 114.81725581225074 114.88116024355365 l 3.060767884945863 3.073968482513732 a25.33792372881356,25.33792372881356 0 0,0 -0.31171684771607033,0.3050805431898205 l -3.0074010848539983 -3.126199128626124" fill="#ff1302" stroke="none" /><path d="M 114.0293411484842 115.62618273729858 l 36.650717266648975 40.82235932537712 a75.86109821221268,75.86109821221268 0 0,0 -0.9791776565392684,0.8640104348619461 l -35.94259725720312 -41.44719290201135" fill="#43ffdb" stroke="none" /><path d="M 113.75828350139079 115.86535959552629 l 19.986965424370677 23.047961880487236 a51.507168562804736,51.507168562804736 0 0,0 -0.6748285845425226,0.575103559840624 l -19.587271363251105 -23.388589830550806" fill="#94ff23" stroke="none" /><path d="M 112.34349029814194 116.9893568818739 l 18.22900231660531 25.090069216802682 a52.013031112143025,52.013031112143025 0 0,0 -0.7288577929547347,0.5200206828985513 l -17.794417195801692 -25.400134161545452" fill="#8eff24" stroke="none" /><path d="M 111.7513745106137 117.40417183066458 l 17.133555876761687 25.37535930627747 a51.61809263988855,51.61809263988855 0 0,0 -0.7406589197706123,0.490868345127495 l -16.694222258251113 -25.666525672496284" fill="#92ff23" stroke="none" /><line stroke="#e1ed5e" stroke-width="0.3" x1="143.8653032363475" x2="146.44561519142675" y1="172.8068346515853" y2="177.08958963109032" /><path d="M 144.38136562736335 173.6633856474863 a86.0,86.0 0 0,1 -40.68145358897372,12.25698825130547" fill="none" id="id66" stroke="none" /><text fill="#e1ed5e" style="font-size:6.75px; font-family:Arial;" text-anchor="middle"><textPath startOffset="21.466115282336833" xlink:href="#id66">June</textPath></text><path d="M 110.5260780823613 118.17145234162733 l 21.674598818913758 37.4174442161681 a64.24180113768284,64.24180113768284 0 0,0 -0.9616423525158913,0.5460456250822583 l -21.02730769947667 -37.78499300704498" fill="#34ff58" stroke="none" /><path d="M 110.21172684928248 118.3499491758327 l 4.5319427999710715 8.143668673735947 a30.31975563036917,30.31975563036917 0 0,0 -0.45822851365696543,0.2498627213426056 l -4.391091474445457 -8.220472046838323" fill="#ff5b08" stroke="none" /><path d="M 109.89434966115114 118.52300852407294 l 14.829176655778562 27.761396656363196 a52.47379266310658,52.47379266310658 0 0,0 -0.8003730080443555,0.4187173298443441 l -14.34911274520771 -28.012543405152257" fill="#89ff24" stroke="none" /><path d="M 108.59647513512805 119.15986991738527 l 12.849430016453805 28.63887858196352 a52.38938065939169,52.38938065939169 0 0,0 -0.8259543239909296,0.3620741030775084 l -12.354555017805122 -28.855817238335487" fill="#8aff24" stroke="none" /><path d="M 107.93186726928326 119.44442032107085 l 11.515318971375725 28.22900265587318 a51.48736069189691,51.48736069189691 0 0,0 -0.823500919363745,0.32768801093690236 l -11.027696975970114 -28.42303751121615" fill="#94ff23" stroke="none" /><path d="M 106.91757812671514 119.82793768551818 l 1.0487992841293208 3.0061860479784936 a24.183886696076154,24.183886696076154 0 0,0 -0.39423220910874257,0.13374496981316686 l -0.9968973420833511 -3.0237940046897833" fill="#ff0100" stroke="none" /><path d="M 105.53697534728816 120.25689768951611 l 8.040393342636676 29.415595177794692 a51.49467436730903,51.49467436730903 0 0,0 -0.8570419445563958,0.22635256709036272 l -7.532860955268783 -29.549639094188638" fill="#94ff23" stroke="none" /><path d="M 104.83641907484287 120.43548508189849 l 4.3840926159189895 18.524254797581758 a40.035973415370336,40.035973415370336 0 0,0 -0.6719939965886229,0.1529436457989523 l -4.064578469937505 -18.596975176958395" fill="#ffdf14" stroke="none" /><path d="M 103.06178313531738 120.77559828337769 l 4.580722943291246 31.08229927179529 a52.41802588808916,52.41802588808916 0 0,0 -0.893780779854918,0.12386987193887769 l -4.0450135722494975 -31.15654370922677" fill="#89ff24" stroke="none" /><path d="M 102.70371172650421 120.8252237178851 l 3.9355107363330637 30.313102807836337 a51.567506384954726,51.567506384954726 0 0,0 -0.8812459001515763,0.10670660594810942 l -3.4131374131301073 -30.376354942509796" fill="#93ff23" stroke="none" /><line stroke="#e1ed5e" stroke-width="0.3" x1="102.19456741930631" x2="102.32365962044197" y1="184.97166512339345" y2="189.96999836594603" /><path d="M 102.22038585953345 185.97133177190398 a86.0,86.0 0 0,1 -42.740103519485714,-10.115201625700543" fill="none" id="id67" stroke="none" /><text fill="#e1ed5e" style="font-size:6.75px; font-family:Arial;" text-anchor="middle"><textPath startOffset="22.20632615414155" xlink:href="#id67">July</textPath></text><path d="M 100.54218724476979 120.99299961872073 l 0.7877733931654933 30.501873110982597 a51.51204434641282,51.51204434641282 0 0,0 -0.8865966325157186,0.015263565063928047 l -0.2626170707571067 -30.510914153325686" fill="#94ff23" stroke="none" /><path d="M 99.81925306533755 120.99922214144158 l -0.13157606769999003 15.286539045818097 a36.28710529370792,36.28710529370792 0 0,0 -0.624553456678819,-0.010752254150648729 l 0.394689214271477 -15.282009314388288" fill="#ffae10" stroke="none" /><path d="M 98.01472825383883 120.90594882070398 l -2.9062025261346833 30.603831133674785 a51.74151091246807,51.74151091246807 0 0,0 -0.885931463166643,-0.0918304185124206 l 3.43256658590692 -30.5492713467066" fill="#91ff24" stroke="none" /><path d="M 97.2962882734958 120.8252237178851 l -0.8237626452531062 6.344996476386048 a27.39824703970281,27.39824703970281 0 0,0 -0.46716804364369624,-0.06474523400410492 l 0.9328592800836335 -6.329876676889338" fill="#ff3104" stroke="none" /><path d="M 95.51606077576429 120.51570834832081 l -6.750113987726564 30.88431019350478 a52.61336196888786,52.61336196888786 0 0,0 -0.8831023793682302,-0.20099122640969974 l 7.280736516487657 -30.763542233517395" fill="#87ff25" stroke="none" /><path d="M 95.16358092515715 120.4354850818985 l -9.266060158076272 39.15219735884745 a61.23374738797307,61.23374738797307 0 0,0 -1.02361456587676,-0.25157955587385106 l 9.938628008696242 -38.98689654465957" fill="#30ff33" stroke="none" /><path d="M 93.08242187328487 119.8279376855182 l -10.337017140361866 29.629117005803362 a52.380543301602046,52.380543301602046 0 0,0 -0.8487654423391797,-0.30433708999483017 l 10.845502143330771 -29.446792374768574" fill="#8aff24" stroke="none" /><path d="M 92.06813273071674 119.44442032107085 l -2.5657251755803503 6.289696618542347 a27.792880775481773,27.792880775481773 0 0,0 -0.4414151886384512,-0.18451158465070502 l 2.6736118237162634 -6.244599990871669" fill="#ff3705" stroke="none" /><path d="M 91.07499286063937 119.00905698771935 l -7.470574962453567 15.911313344056591 a38.577809380078946,38.577809380078946 0 0,0 -0.5986675892032935,-0.2873968237870676 l 7.743355219657102 -15.78036224376996" fill="#ffcc13" stroke="none" /><path d="M 90.7491055286396 118.85261126421891 l -15.537588211032412 31.664409472290593 a56.27111388437427,56.27111388437427 0 0,0 -0.865894788670186,-0.43417762272017674 l 16.08033690738536 -31.39226400866111" fill="#5fff29" stroke="none" /><path d="M 90.10565033884886 118.52300852407294 l -14.371301669282571 26.90421831030926 a51.50198804272115,51.50198804272115 0 0,0 -0.7783598165797018,-0.42442383255950744 l 14.832284297730913 -26.652853825989986" fill="#94ff23" stroke="none" /><line stroke="#e1ed5e" stroke-width="0.3" x1="58.666819895761336" x2="56.23545636021788" y1="174.27360380694188" y2="178.64263932499728" /><path d="M 58.180547188652646 175.14741091055294 a86.0,86.0 0 0,1 -31.652253787137756,-30.449443065178592" fill="none" id="id68" stroke="none" /><text fill="#e1ed5e" style="font-size:6.75px; font-family:Arial;" text-anchor="middle"><textPath startOffset="22.20632615414155" xlink:href="#id68">August</textPath></text><path d="M 84.43433777217949 114.09645910891817 l -22.65866381358234 20.51997038327167 a51.569334803807756,51.569334803807756 0 0,0 -0.590201583315102,-0.6630977355385496 l 23.008524246545782 -20.126898477992256" fill="#93ff23" stroke="none" /><path d="M 82.85270091963577 112.12312394758628 l -24.96301570612231 17.64882808030171 a51.5717726956118,51.5717726956118 0 0,0 -0.5062361161673358,-0.7292708822127223 l 25.263112729451777 -17.216515935901974" fill="#93ff23" stroke="none" /><line stroke="#e1ed5e" stroke-width="0.3" x1="26.63291911575756" x2="22.317208475507996" y1="142.92168965132927" y2="145.44649492493687" /><path d="M 25.769776987707644 143.4266507060508 a86.0,86.0 0 0,1 -11.730757126820373,-40.83630448921669" fill="none" id="id69" stroke="none" /><text fill="#e1ed5e" style="font-size:6.75px; font-family:Arial;" text-anchor="middle"><textPath startOffset="21.46611528233685" xlink:href="#id69">September</textPath></text><path d="M 81.87401531095188 110.60418214915194 l -26.336756950095936 15.4077018549786 a51.51265381936382,51.51265381936382 0 0,0 -0.44116418868124785,-0.7692069488058942 l 26.59807313492956 -14.952075060314398" fill="#94ff23" stroke="none" /><path d="M 81.18737489456691 109.33194174019688 l -13.20230674953346 6.548961494335697 a35.73736069189692,35.73736069189692 0 0,0 -0.26862028582862296,-0.5534373515074757 l 13.313080291976803 -6.320735186862936" fill="#ffa70f" stroke="none" /><path d="M 80.87730276802145 108.67885076344099 l -10.187931074048937 4.623800309510284 a32.188094961690275,32.188094961690275 0 0,0 -0.22464058486437533,-0.5065052154867441 l 10.266012743644593 -4.447746757530845" fill="#ff760a" stroke="none" /><path d="M 80.73074385275274 108.34839909993369 l -27.98421009345772 12.12415012657104 a51.49772173206408,51.49772173206408 0 0,0 -0.34540017032346926,-0.8164239730837902 l 28.188761244973495 -11.640651627821091" fill="#94ff23" stroke="none" /><path d="M 79.58551787078972 104.9243191809786 l -29.651537609691278 7.152453560797703 a51.50198804272115,51.50198804272115 0 0,0 -0.2004639693363496,-0.8635935332714797 l 29.77026214495818 -6.640991370177649" fill="#94ff23" stroke="none" /><path d="M 79.18660465613746 102.79330883721812 l -30.57163759724157 4.102935828477706 a51.84573078709079,51.84573078709079 0 0,0 -0.11109426844825268,-0.8855306261582934 l 30.637733374936673 -3.5760874480320046" fill="#90ff24" stroke="none" /><line stroke="#e1ed5e" stroke-width="0.3" x1="15.007084014347285" x2="10.007500721073583" y1="101.09737516637583" y2="101.16192664675087" /><path d="M 14.007167355692545 101.11028546245083 a86.0,86.0 0 0,1 10.666146001902534,-42.60595125391555" fill="none" id="id70" stroke="none" /><text fill="#e1ed5e" style="font-size:6.75px; font-family:Arial;" text-anchor="middle"><textPath startOffset="22.20632615414155" xlink:href="#id70">October</textPath></text><path d="M 79.08570108090925 98.10471618934814 l -30.41999831026852 -2.7567039440600674 a51.54465114929185,51.54465114929185 0 0,0 0.08768205213140572,-0.8829462990335375 l 30.36803913245489 3.279925773798035" fill="#93ff23" stroke="none" /><path d="M 79.32604984820605 96.31383870115002 l -5.41989179594714 -0.9663656551112114 a26.505369166473184,26.505369166473184 0 0,0 0.08395168774332563,-0.4484732728474047 l 5.402454384293953 1.0595170054211889" fill="#ff2403" stroke="none" /><path d="M 80.52162464483688 92.15188598940014 l -10.095616620622843 -4.067667287505731 a31.884272695611795,31.884272695611795 0 0,0 0.20949229340004366,-0.5073022052478595 l 10.0241026403366 4.240844063206903" fill="#ff720a" stroke="none" /><path d="M 80.95270993114464 91.15688171328213 l -27.764952141813602 -12.890482327278034 a51.61138843742745,51.61138843742745 0 0,0 0.3810439467463663,-0.8025757301697369 l 27.538950001225484 13.366500473088303" fill="#93ff23" stroke="none" /><path d="M 81.43458229118936 90.18545643968196 l -26.991410340874157 -14.268915286468888 a51.53093800789412,51.53093800789412 0 0,0 0.4213068902681161,-0.7806176822393612 l 26.74179535138757 14.731413952040722" fill="#93ff23" stroke="none" /><line stroke="#e1ed5e" stroke-width="0.3" x1="26.266209847984243" x2="21.928928074336255" y1="57.711370442889674" y2="55.22380399835377" /><path d="M 25.398753493254645 57.213857153982495 a86.0,86.0 0 0,1 29.58750427330803,-30.492523968695096" fill="none" id="id71" stroke="none" /><text fill="#e1ed5e" style="font-size:6.75px; font-family:Arial;" text-anchor="middle"><textPath startOffset="21.46611528233685" xlink:href="#id71">November</textPath></text><path d="M 82.34701348167596 88.62581576622439 l -25.820105687368727 -16.63642799017846 a51.71560831205015,51.71560831205015 0 0,0 0.48859765207726935,-0.7441677448718081 l 25.52991139993354 17.07841379902794" fill="#91ff23" stroke="none" /><path d="M 82.7489923806493 88.02491185347247 l -50.54090626162631 -35.083852540269156 a82.52446598560485,82.52446598560485 0 0,0 0.820086409934278,-1.1599540682486407 l 49.92950723188815 35.948633108849585" fill="#4be0ff" stroke="none" /><path d="M 84.31358615837235 86.03803664274999 l -22.889298581449804 -20.373015227946883 a51.642776294404456,51.642776294404456 0 0,0 0.5967356230514381,-0.6589303793213105 l 22.53521931778232 20.763998394537747" fill="#92ff23" stroke="none" /><path d="M 86.10567301691215 84.25364557470407 l -8.47728955775378 -9.6072595746977 a33.812645112607385,33.812645112607385 0 0,0 0.43973538401947343,-0.381334191797256 l 8.310660375087533 9.751758759914637" fill="#ff8c0c" stroke="none" /><line stroke="#e1ed5e" stroke-width="0.3" x1="56.762969772571076" x2="54.21961505331055" y1="26.818313649435495" y2="22.513508569990535" /><path d="M 56.25429882871897 25.957352633546506 a86.0,86.0 0 0,1 42.265352541879196,-11.944610805530505" fill="none" id="id72" stroke="none" /><text fill="#e1ed5e" style="font-size:6.75px; font-family:Arial;" text-anchor="middle"><textPath startOffset="22.20632615414155" xlink:href="#id72">December</textPath></text><path d="M 90.58718382345135 81.22770947309562 l -13.665739389820903 -27.254035910084312 a51.48827490132342,51.48827490132342 0 0,0 0.7956868865497797,-0.39044009959976755 l 13.194581236260698 27.48523116981891" fill="#94ff23" stroke="none" /><path d="M 91.90106846888425 80.62456947434976 l -11.815329442610743 -28.266332895079536 a51.636376828418854,51.636376828418854 0 0,0 0.8230251543087892,-0.33573262537348525 l 11.327020418713573 28.4655264066366" fill="#92ff23" stroke="none" /><path d="M 94.63758080256005 79.69619591428918 l -5.686131524195089 -21.529480673192783 a43.267703738100764,43.267703738100764 0 0,0 0.7217281917365487,-0.18398458602217507 l 5.314694443773541 21.62416825538382" fill="#f6ff19" stroke="none" /><path d="M 96.75951476605007 79.25152402106235 l -3.852919638508833 -24.66982713910836 a45.96888785697702,45.96888785697702 0 0,0 0.7828523920405618,-0.11537209271659735 l 3.4276982660396222 24.732493715985928" fill="#d4ff1c" stroke="none" /></svg>