<?xml version="1.0" encoding="utf-8" ?>
<svg baseProfile="full" height="200mm" version="1.1" viewBox="0,0,200,200" width="200mm" xmlns="http://www.w3.org/2000/svg" xmlns:ev="http://www.w3.org/2001/xml-events" xmlns:xlink="http://www.w3.org/1999/xlink"><defs /><rect fill="#1a1a1a" height="200" width="200" x="0" y="0" /><text alignment-baseline="middle" fill="#e1ed5e" style="dominant-baseline: central; font-size:9.0px; font-family:Arial;" text-anchor="middle" x="100.0" y="100.0">2020</text><line stroke="#e1ed5e" stroke-width="0.3" x1="100.0" x2="100.0" y1="15.0" y2="10.0" /><path d="M 100.0 14.0 a86.0,86.0 0 0,1 42.35913384403234,11.155469271406648" fill="none" id="id25" stroke="none" /><text fill="#e1ed5e" style="font-size:6.75px; font-family:Arial;" text-anchor="middle"><textPath startOffset="22.145653131862478" xlink:href="#id25">January</textPath></text><line stroke="#e1ed5e" stroke-width="0.3" x1="143.13028292997686" x2="145.6673583964461" y1="26.7553504044142" y2="22.446841604673864" /><path d="M 143.63769802327073 25.89364864446614 a86.0,86.0 0 0,1 29.32050498858742,28.57503671076993" fill="none" id="id26" stroke="none" /><text fill="#e1ed5e" style="font-size:6.75px; font-family:Arial;" text-anchor="middle"><textPath startOffset="20.669276256404974" xlink:href="#id26">February</textPath></text><line stroke="#e1ed5e" stroke-width="0.3" x1="172.87174338648825" x2="177.1583165268699" y1="56.24261187166439" y2="53.66864786411523" /><path d="M 173.72905801456457 55.72781907015455 a86.0,86.0 0 0,1 12.242430191666344,42.057860355516425" fill="none" id="id27" stroke="none" /><text fill="#e1ed5e" style="font-size:6.75px; font-family:Arial;" text-anchor="middle"><textPath startOffset="22.145653131862474" xlink:href="#id27">March</textPath></text><path d="M 118.00360718960297 89.18935116829356 l 25.537121567992273 -15.334307760479927 a50.78733913043478,50.78733913043478 0 0,0 0.4423971199767478,0.7512870269689765 l -25.796592398098788 14.893669565217394" fill="#b2ff20" stroke="none" /><path d="M 120.592083275326 95.88100663000786 l 13.797974805851979 -2.7599813959922463 a35.071304347826086,35.071304347826086 0 0,0 0.11301929522468106,0.5913647100238657 l -13.843320393358818 2.522714120935066" fill="#ff770b" stroke="none" /><path d="M 120.7213421655516 96.59031103205396 l 6.229684901289614 -1.0250922798340745 a27.31346086956522,27.31346086956522 0 0,0 0.07215762159920762,0.4633036930520126 l -6.246364015027087 0.9180004048506206" fill="#ff0000" stroke="none" /><line stroke="#e1ed5e" stroke-width="0.3" x1="184.99686870605535" x2="189.99668451229388" y1="99.2704041080226" y2="99.22748670261217" /><path d="M 185.99683186730306 99.26182062694052 a86.0,86.0 0 0,1 -10.086455211305974,41.156179273409016" fill="none" id="id28" stroke="none" /><text fill="#e1ed5e" style="font-size:6.75px; font-family:Arial;" text-anchor="middle"><textPath startOffset="21.40746469413373" xlink:href="#id28">April</textPath></text><path d="M 120.99922638620191 99.81974689727618 l 8.546398193233557 -0.07336054972272231 a29.54671304347826,29.54671304347826 0 0,0 0.0,0.5072273048930973 l -8.546398193233557 -0.07336054972272128" fill="#ff2303" stroke="none" /><path d="M 120.82617615685814 102.69636545807757 l 6.721913532645348 0.870286284198195 a27.778017391304346,27.778017391304346 0 0,0 -0.06528559416598118,0.47237403740267403 l -6.705983421924157 -0.985548629800954" fill="#ff0701" stroke="none" /><path d="M 118.70294669586154 109.54985784667822 l 5.659116701107044 2.8895853103881914 a27.354156521739128,27.354156521739128 0 0,0 -0.217129389150961,0.41637423328006556 l -5.608679242981133 -2.98630578677276" fill="#ff0100" stroke="none" /><line stroke="#e1ed5e" stroke-width="0.3" x1="174.33088141563837" x2="178.70328620479359" y1="141.23008692659167" y2="143.65538615756765" /><path d="M 175.20536237346943 141.71514677278685 a86.0,86.0 0 0,1 -30.301960400862466,31.631185727798858" fill="none" id="id29" stroke="none" /><text fill="#e1ed5e" style="font-size:6.75px; font-family:Arial;" text-anchor="middle"><textPath startOffset="22.145653131862474" xlink:href="#id29">May</textPath></text><path d="M 118.18653347947321 110.5 l 26.653279788833725 15.388278260869555 a51.776556521739124,51.776556521739124 0 0,0 -0.4510139707989637,0.7659203234886315 l -26.385192107904995 -15.843549752651736" fill="#a5ff21" stroke="none" /><path d="M 117.01052211995028 112.31430620078461 l 5.2915613753906445 3.830682362205811 a27.532591304347825,27.532591304347825 0 0,0 -0.28043646074399314,0.38046591838096716 l -5.225022895062823 -3.9209545898556555" fill="#ff0400" stroke="none" /><path d="M 116.35404254752997 113.17365903436017 l 6.5115499594215 5.245243718873444 a29.361391304347826,29.361391304347826 0 0,0 -0.31955425591371417,0.38980423341951836 l -6.4205488842691585 -5.356250233991455" fill="#ff2003" stroke="none" /><path d="M 115.41159269507618 114.26474011684316 l 24.33109504323172 22.52049832985776 a54.15380869565217,54.15380869565217 0 0,0 -0.6373237095282395,0.6768156937478982 l -23.940915499967222 -22.934855483550155" fill="#89ff24" stroke="none" /><path d="M 114.65682725009322 115.03919595460226 l 6.118506190980527 6.278126362921963 a29.766469565217392,29.766469565217392 0 0,0 -0.3690014774513756,0.3534950682473023 l -6.00983222766384 -6.3822335614748456" fill="#ff2703" stroke="none" /><path d="M 112.7482090630111 116.68781488649013 l 4.8451429307408365 6.342447627517301 a28.98135652173913,28.98135652173913 0 0,0 -0.3979375014454737,0.2986197197801095 l -4.7355524403845966 -6.424686374561426" fill="#ff1a02" stroke="none" /><line stroke="#e1ed5e" stroke-width="0.3" x1="143.1302829299769" x2="145.66735839644613" y1="173.24464959558577" y2="177.55315839532614" /><path d="M 143.63769802327073 174.10635135553383 a86.0,86.0 0 0,1 -40.68552437913181,11.842963189579606" fill="none" id="id30" stroke="none" /><text fill="#e1ed5e" style="font-size:6.75px; font-family:Arial;" text-anchor="middle"><textPath startOffset="21.407464694133747" xlink:href="#id30">June</textPath></text><path d="M 110.02825361518725 118.45085714620011 l 3.6926895026438085 6.794132768577914 a28.732799999999997,28.732799999999997 0 0,0 -0.4353856339889576,0.23181832690576112 l -3.5755150528682975 -6.856521563206243" fill="#ff1702" stroke="none" /><path d="M 102.51750503828377 120.84855314841334 l 2.0243367469580553 16.76441223252242 a37.886191304347825,37.886191304347825 0 0,0 -0.6463458175919911,0.07242439700954559 l -1.7362550277652653 -16.796692390038938" fill="#ffa00e" stroke="none" /><line stroke="#e1ed5e" stroke-width="0.3" x1="101.45913802915013" x2="101.54496967792366" y1="184.9874750549273" y2="189.98673829345242" /><path d="M 101.47630435890484 185.9873277026323 a86.0,86.0 0 0,1 -42.54439059252881,-10.42667462771756" fill="none" id="id31" stroke="none" /><text fill="#e1ed5e" style="font-size:6.75px; font-family:Arial;" text-anchor="middle"><textPath startOffset="22.145653131862474" xlink:href="#id31">July</textPath></text><path d="M 99.27912038922189 120.98762331915562 l -0.9659177842643599 28.121642380108643 a49.13822608695652,49.13822608695652 0 0,0 -0.84277729553779,-0.0361924833179126 l 1.4485208404029886 -28.1009173283649" fill="#c6ff1e" stroke="none" /><path d="M 93.27111125876986 119.89276391827306 l -2.3732498029938616 7.016091343697002 a28.406608695652174,28.406608695652174 0 0,0 -0.46058506174501224,-0.16021539330113105 l 2.4933406367838957 -6.974317517827281" fill="#ff1101" stroke="none" /><path d="M 91.26138138417905 119.09545874513695 l -3.4298806681425953 7.494908254799347 a29.242434782608697,29.242434782608697 0 0,0 -0.454665951923745,-0.21280662293006528 l 3.55803533393783 -7.434925400298755" fill="#ff1f03" stroke="none" /><path d="M 89.97174638481275 118.45085714620012 l -4.159993663653628 7.653919791271408 a29.71137391304348,29.71137391304348 0 0,0 -0.4460325382835294,-0.24740673022140588 l 4.29077039009326 -7.581380145616853" fill="#ff2603" stroke="none" /><line stroke="#e1ed5e" stroke-width="0.3" x1="58.13341422392154" x2="55.67067388415222" y1="173.97424548756322" y2="178.32567169271397" /><path d="M 57.64086615596768 174.84453072859336 a86.0,86.0 0 0,1 -31.369924170532247,-30.572349798747897" fill="none" id="id32" stroke="none" /><text fill="#e1ed5e" style="font-size:6.75px; font-family:Arial;" text-anchor="middle"><textPath startOffset="22.145653131862474" xlink:href="#id32">August</textPath></text><line stroke="#e1ed5e" stroke-width="0.3" x1="26.387840678322732" x2="22.057713659400548" y1="142.50000000000003" y2="145.00000000000006" /><path d="M 25.521815274538298 143.00000000000003 a86.0,86.0 0 0,1 -11.493303480769221,-40.785679425670985" fill="none" id="id33" stroke="none" /><text fill="#e1ed5e" style="font-size:6.75px; font-family:Arial;" text-anchor="middle"><textPath startOffset="21.40746469413373" xlink:href="#id33">September</textPath></text><path d="M 79.17382384314188 102.69636545807758 l -40.11726909825871 5.193983660477536 a61.45210434782609,61.45210434782609 0 0,0 -0.12646817832698282,-1.0473379386880965 l 40.20051936284535 -4.504552044866041" fill="#37ff2e" stroke="none" /><line stroke="#e1ed5e" stroke-width="0.3" x1="15.003131293944662" x2="10.003315487706104" y1="100.72959589197737" y2="100.7725132973878" /><path d="M 14.003168132696942 100.73817937305945 a86.0,86.0 0 0,1 10.791469493833604,-42.45332614584628" fill="none" id="id34" stroke="none" /><text fill="#e1ed5e" style="font-size:6.75px; font-family:Arial;" text-anchor="middle"><textPath startOffset="22.145653131862435" xlink:href="#id34">October</textPath></text><path d="M 79.56144815229197 95.17655741523228 l -18.05742247319194 -4.261502535861061 a39.553460869565214,39.553460869565214 0 0,0 0.1616276339075334,-0.6594959019080475 l 17.98160731276811 4.570854262377226" fill="#ffb811" stroke="none" /><line stroke="#e1ed5e" stroke-width="0.3" x1="26.387840678322718" x2="22.05771365940052" y1="57.49999999999999" y2="54.99999999999999" /><path d="M 25.521815274538284 56.99999999999999 a86.0,86.0 0 0,1 29.574782752854787,-30.34633250058573" fill="none" id="id35" stroke="none" /><text fill="#e1ed5e" style="font-size:6.75px; font-family:Arial;" text-anchor="middle"><textPath startOffset="21.40746469413373" xlink:href="#id35">November</textPath></text><path d="M 81.99639281039701 89.18935116829357 l -20.00104590428351 -12.010053388796322 a44.32987826086956,44.32987826086956 0 0,0 0.3973477724041953,-0.6490377243778516 l 19.791930167423924 12.351628229298717" fill="#fffa17" stroke="none" /><path d="M 82.18462484594161 88.88188828441811 l -20.53499729310425 -12.81535707273024 a45.20577391304347,45.20577391304347 0 0,0 0.41650083278732275,-0.6548084880912117 l 20.311978768691038 13.165979235500124" fill="#f9ff18" stroke="none" /><path d="M 87.54013794807813 83.09580414077388 l -36.137748078560904 -49.02779572404178 a81.90699130434783,81.90699130434783 0 0,0 1.1389712782858976,-0.8245273705186202 l 35.29079578990104 49.64092386593348" fill="#4ae7ff" stroke="none" /><line stroke="#e1ed5e" stroke-width="0.3" x1="56.869717070023135" x2="54.33264160355391" y1="26.7553504044142" y2="22.446841604673864" /><path d="M 56.362301976729285 25.89364864446614 a86.0,86.0 0 0,1 42.16139366436587,-11.88097634709845" fill="none" id="id36" stroke="none" /><text fill="#e1ed5e" style="font-size:6.75px; font-family:Arial;" text-anchor="middle"><textPath startOffset="22.145653131862474" xlink:href="#id36">December</textPath></text><path d="M 93.27111125876988 80.10723608172694 l -20.186666223690388 -59.67829175481917 a84.0,84.0 0 0,0 1.3699090494089559,-0.4503163143918858 l 19.15923443663367 60.01602899061309" fill="#4dd2ff" stroke="none" /><path d="M 97.48249496171623 79.15144685158666 l -1.361516762071087 -11.275311923842523 a32.357217391304346,32.357217391304346 0 0,0 0.5520204435905994,-0.06185504210878711 l 1.1677604168796885 11.29702272645828" fill="#ff4f07" stroke="none" /></svg>