<?xml version="1.0" encoding="utf-8" ?>
<svg baseProfile="full" height="200mm" version="1.1" viewBox="0,0,200,200" width="200mm" xmlns="http://www.w3.org/2000/svg" xmlns:ev="http://www.w3.org/2001/xml-events" xmlns:xlink="http://www.w3.org/1999/xlink"><defs /><rect fill="#1a1a1a" height="200" width="200" x="0" y="0" /><text alignment-baseline="middle" fill="#e1ed5e" style="dominant-baseline: central; font-size:9.0px; font-family:Arial;" text-anchor="middle" x="100.0" y="100.0">2019</text><line stroke="#e1ed5e" stroke-width="0.3" x1="100.0" x2="100.0" y1="15.0" y2="10.0" /><path d="M 100.0 14.0 a86.0,86.0 0 0,1 42.46469731375804,11.215312516191453" fill="none" id="id13" stroke="none" /><text fill="#e1ed5e" style="font-size:6.75px; font-family:Arial;" text-anchor="middle"><textPath startOffset="22.20632615414155" xlink:href="#id13">January</textPath></text><path d="M 101.80526077348638 79.07773832637324 l 2.1606893809568963 -25.041539309859697 a46.13458313973455,46.13458313973455 0 0,0 0.7906036782931684,0.0750773456104604 l -2.591418186340309 25.00063641973406" fill="#f0ff19" stroke="none" /><path d="M 108.09893153111575 80.62456947434976 l 7.725979178129378 -18.483200189228356 a41.032958930122625,41.032958930122625 0 0,0 0.6493294627810798,0.2780089888410126 l -8.042992398700774 18.347471672424554" fill="#ffc812" stroke="none" /><line stroke="#e1ed5e" stroke-width="0.3" x1="143.23703022742887" x2="145.7803849466894" y1="26.81831364943548" y2="22.513508569990506" /><path d="M 143.74570117128098 25.957352633546492 a86.0,86.0 0 0,1 28.547481713284135,27.462654790039103" fill="none" id="id14" stroke="none" /><text fill="#e1ed5e" style="font-size:6.75px; font-family:Arial;" text-anchor="middle"><textPath startOffset="19.985693538727396" xlink:href="#id14">February</textPath></text><path d="M 112.77801427241765 83.33499621200491 l 7.145476113104642 -9.31908385397249 a32.74321730874124,32.74321730874124 0 0,0 0.4443214748729288,0.3467999588487731 l -7.304830143137001 9.194705505900492" fill="#ff4f07" stroke="none" /><path d="M 113.34407831869373 83.78471172551755 l 9.479360862158453 -11.519009808449084 a35.91797135411406,35.91797135411406 0 0,0 0.4740188118338589,0.3969771228596106 l -9.67623721095143 11.354131528195653" fill="#ff7e0b" stroke="none" /><path d="M 117.04232023915458 87.72973835380427 l 5.743145897445648 -4.134994639522719 a28.076857033191246,28.076857033191246 0 0,0 0.2790136065903622,0.3946449595319508 l -5.813472123839893 4.035523179658975" fill="#ff0500" stroke="none" /><path d="M 117.65298651832404 88.62581576622439 l 7.38361365161593 -4.7574149505708405 a29.783549827276218,29.783549827276218 0 0,0 0.27396951964110944,0.43335398614978077 l -7.464410767502995 4.629613316706854" fill="#ff2003" stroke="none" /><line stroke="#e1ed5e" stroke-width="0.3" x1="172.23445277983987" x2="176.4835382374775" y1="55.19839476539836" y2="52.563006222186495" /><path d="M 173.08426987136738 54.67131705675599 a86.0,86.0 0 0,1 12.851231095245387,41.99856678651699" fill="none" id="id15" stroke="none" /><text fill="#e1ed5e" style="font-size:6.75px; font-family:Arial;" text-anchor="middle"><textPath startOffset="22.20632615414155" xlink:href="#id15">March</textPath></text><path d="M 119.97218684219823 93.5106431181261 l 22.190466942770048 -7.210119778311194 a44.332437728530735,44.332437728530735 0 0,0 0.2295671187697714,0.7277905013724814 l -22.311289545308025 6.827079110512293" fill="#fff517" stroke="none" /><line stroke="#e1ed5e" stroke-width="0.3" x1="184.98032266829074" x2="189.97916517819016" y1="98.17113171792111" y2="98.06355123074" /><path d="M 185.9800911702706 98.14961562048488 a86.0,86.0 0 0,1 -9.607161424134198,41.387399972396054" fill="none" id="id16" stroke="none" /><text fill="#e1ed5e" style="font-size:6.75px; font-family:Arial;" text-anchor="middle"><textPath startOffset="21.466115282336823" xlink:href="#id16">April</textPath></text><path d="M 120.99513854157772 99.54816195383933 l 19.353309461469276 -0.4165041119636219 a40.357790751701984,40.357790751701984 0 0,0 0.008969024865853253,0.6946608600725261 l -19.357611493452847 0.083306993830633" fill="#ffbf11" stroke="none" /><path d="M 120.9764740272857 100.99374915477107 l 19.304322626068167 0.9145318831053075 a40.32597321266237,40.32597321266237 0 0,0 -0.038815955839983325,0.6930849666071393 l -19.285720319340655 -1.2466885660478702" fill="#ffbe11" stroke="none" /><path d="M 120.41448212921028 104.9243191809786 l 34.50967556393179 8.324318796491152 a56.49946465727965,56.49946465727965 0 0,0 -0.23619113072834477,0.9434661592504153 l -34.361273118908386 -8.917112795138962" fill="#70ff27" stroke="none" /><line stroke="#e1ed5e" stroke-width="0.3" x1="174.80103733775053" x2="179.2010983576182" y1="140.37084112569926" y2="142.7455964860345" /><path d="M 175.68104954172406 140.8457921977663 a86.0,86.0 0 0,1 -30.038265399797805,32.042727171017184" fill="none" id="id17" stroke="none" /><text fill="#e1ed5e" style="font-size:6.75px; font-family:Arial;" text-anchor="middle"><textPath startOffset="22.206326154141568" xlink:href="#id17">May</textPath></text><path d="M 113.75828350139079 115.86535959552629 l 13.863066695266149 15.986190297280052 a42.159936162905794,42.159936162905794 0 0,0 -0.5523644735106285,0.47073698761709387 l -13.585836745178474 -16.222451675120094" fill="#ffd814" stroke="none" /><path d="M 112.34349029814194 116.9893568818739 l 17.983728011595655 24.752478097831258 a51.59574554049413,51.59574554049413 0 0,0 -0.7230103767538192,0.5158487066977274 l -17.554990306992952 -25.058371066373205" fill="#abff21" stroke="none" /><path d="M 112.04921762599082 117.19931262002967 l 22.432999260849563 32.021346054866264 a60.097391971879354,60.097391971879354 0 0,0 -0.8523616405211557,0.5862621085988444 l -21.878480735705523 -32.4027489528302" fill="#48ff2c" stroke="none" /><path d="M 111.7513745106137 117.40417183066458 l 8.91768868919716 13.207390006929145 a36.93613260338175,36.93613260338175 0 0,0 -0.5299900611473638,0.35124851305375276 l -8.689023929309831 -13.358936541074218" fill="#ff8d0d" stroke="none" /><path d="M 111.45004920935366 117.60387380957326 l 18.3457309532507 28.20563708857961 a54.647047534393245,54.647047534393245 0 0,0 -0.792949992768383,0.5060982025151876 l -17.857499158435388 -28.51724971991861" fill="#86ff25" stroke="none" /><line stroke="#e1ed5e" stroke-width="0.3" x1="143.8653032363475" x2="146.44561519142675" y1="172.8068346515853" y2="177.08958963109032" /><path d="M 144.38136562736335 173.6633856474863 a86.0,86.0 0 0,1 -40.68145358897372,12.25698825130547" fill="none" id="id18" stroke="none" /><text fill="#e1ed5e" style="font-size:6.75px; font-family:Arial;" text-anchor="middle"><textPath startOffset="21.466115282336833" xlink:href="#id18">June</textPath></text><path d="M 104.48393922423573 120.51570834832081 l 8.586570148347814 39.28678781455325 a61.21418759216985,61.21418759216985 0 0,0 -1.0313382024654054,0.2161269478401412 l -7.9090404844530315 -39.428770743119934" fill="#3bff2e" stroke="none" /><path d="M 103.7750983002368 120.6578951692458 l 4.06478357716959 22.243095767221202 a43.61145229389305,43.61145229389305 0 0,0 -0.7396315995270304,0.1285944342286278 l -3.6813030061705097 -22.309768779970835" fill="#ffec16" stroke="none" /><path d="M 103.41894727170886 120.7198165907248 l 2.978257324694892 18.049107115014813 a39.29317589543645,39.29317589543645 0 0,0 -0.6682911064177234,0.10437332672168324 l -2.6671303546686516 -18.0976987490836" fill="#ffaf10" stroke="none" /><line stroke="#e1ed5e" stroke-width="0.3" x1="102.19456741930631" x2="102.32365962044197" y1="184.97166512339345" y2="189.96999836594603" /><path d="M 102.22038585953345 185.97133177190398 a86.0,86.0 0 0,1 -42.740103519485714,-10.115201625700543" fill="none" id="id19" stroke="none" /><text fill="#e1ed5e" style="font-size:6.75px; font-family:Arial;" text-anchor="middle"><textPath startOffset="22.20632615414155" xlink:href="#id19">July</textPath></text><path d="M 98.01472825383883 120.90594882070398 l -3.234483769139062 34.060804154278806 a55.21403608007919,55.21403608007919 0 0,0 -0.9453889325828171,-0.09799342832433162 l 3.820305298327473 -34.000081357498715" fill="#7fff26" stroke="none" /><path d="M 96.22490169976321 120.6578951692458 l -1.2132692038235018 6.639188183017139 a27.749136381083208,27.749136381083208 0 0,0 -0.4691353372833968,-0.08991090394187388 l 1.3273721556785936 -6.617320080726797" fill="#ff0000" stroke="none" /><path d="M 95.86986931433489 120.58985236759428 l -1.5075923993309772 7.515768215390819 a28.665481505424133,28.665481505424133 0 0,0 -0.48295676756462164,-0.101208286343864 l 1.6367406283249857 -7.488703948320413" fill="#ff0f01" stroke="none" /><path d="M 95.16358092515715 120.4354850818985 l -14.509257224528554 61.30645524569551 a84.0,84.0 0 0,0 -1.4041868610271577,-0.3451149667438802 l 15.562397370298923 -61.0476190206376" fill="#4dd2ff" stroke="none" /><line stroke="#e1ed5e" stroke-width="0.3" x1="58.666819895761336" x2="56.23545636021788" y1="174.27360380694188" y2="178.64263932499728" /><path d="M 58.180547188652646 175.14741091055294 a86.0,86.0 0 0,1 -31.652253787137756,-30.449443065178592" fill="none" id="id20" stroke="none" /><text fill="#e1ed5e" style="font-size:6.75px; font-family:Arial;" text-anchor="middle"><textPath startOffset="22.20632615414155" xlink:href="#id20">August</textPath></text><path d="M 88.8546689885994 117.79835938074946 l -31.578813121724504 50.42928417137683 a80.5007070564231,80.5007070564231 0 0,0 -1.1680966851515122,-0.7455345710455268 l 32.44219160892294 -49.8782351715075" fill="#48f6ff" stroke="none" /><path d="M 88.54995079064634 117.60387380957326 l -9.35380729586167 14.381007475574803 a38.15538069937981,38.15538069937981 0 0,0 -0.5474848373300986,-0.3628430967466792 l 9.59996683193173 -14.217866357736806" fill="#ff9f0e" stroke="none" /><path d="M 88.24862548938628 117.40417183066458 l -18.487743535748045 27.380955731332 a54.038059837175005,54.038059837175005 0 0,0 -0.766422099563756,-0.5271521086897668 l 18.95632251993469 -27.058662833277133" fill="#8dff24" stroke="none" /><path d="M 82.44556493220864 111.52570212397912 l -28.721135308839997 18.857414035474164 a55.35848770731904,55.35848770731904 0 0,0 -0.5161391744711747,-0.8010594607270611 l 29.04147934668822 -18.360232974825657" fill="#7dff26" stroke="none" /><line stroke="#e1ed5e" stroke-width="0.3" x1="26.63291911575756" x2="22.317208475507996" y1="142.92168965132927" y2="145.44649492493687" /><path d="M 25.769776987707644 143.4266507060508 a86.0,86.0 0 0,1 -11.730757126820373,-40.83630448921669" fill="none" id="id21" stroke="none" /><text fill="#e1ed5e" style="font-size:6.75px; font-family:Arial;" text-anchor="middle"><textPath startOffset="21.46611528233685" xlink:href="#id21">September</textPath></text><path d="M 80.87730276802145 108.67885076344099 l -32.320182243111304 14.66853942895148 a56.49310114947173,56.49310114947173 0 0,0 -0.3942651249825077,-0.8889637738823489 l 32.56788845282509 -14.110027318576435" fill="#70ff27" stroke="none" /><path d="M 79.86692584326677 105.97154293290107 l -31.11595264386168 9.229104590010916 a53.455798872750044,53.455798872750044 0 0,0 -0.2540610632683787,-0.884419890917469 l 31.27020634401616 -8.692127223588852" fill="#94ff23" stroke="none" /><line stroke="#e1ed5e" stroke-width="0.3" x1="15.007084014347285" x2="10.007500721073583" y1="101.09737516637583" y2="101.16192664675087" /><path d="M 14.007167355692545 101.11028546245083 a86.0,86.0 0 0,1 10.666146001902534,-42.60595125391555" fill="none" id="id22" stroke="none" /><text fill="#e1ed5e" style="font-size:6.75px; font-family:Arial;" text-anchor="middle"><textPath startOffset="22.20632615414155" xlink:href="#id22">October</textPath></text><line stroke="#e1ed5e" stroke-width="0.3" x1="26.266209847984243" x2="21.928928074336255" y1="57.711370442889674" y2="55.22380399835377" /><path d="M 25.398753493254645 57.213857153982495 a86.0,86.0 0 0,1 29.58750427330803,-30.492523968695096" fill="none" id="id23" stroke="none" /><text fill="#e1ed5e" style="font-size:6.75px; font-family:Arial;" text-anchor="middle"><textPath startOffset="21.46611528233685" xlink:href="#id23">November</textPath></text><line stroke="#e1ed5e" stroke-width="0.3" x1="56.762969772571076" x2="54.21961505331055" y1="26.818313649435495" y2="22.513508569990535" /><path d="M 56.25429882871897 25.957352633546506 a86.0,86.0 0 0,1 42.265352541879196,-11.944610805530505" fill="none" id="id24" stroke="none" /><text fill="#e1ed5e" style="font-size:6.75px; font-family:Arial;" text-anchor="middle"><textPath startOffset="22.20632615414155" xlink:href="#id24">December</textPath></text></svg>