<?xml version="1.0" encoding="utf-8" ?>
<svg baseProfile="full" height="200mm" version="1.1" viewBox="0,0,200,200" width="200mm" xmlns="http://www.w3.org/2000/svg" xmlns:ev="http://www.w3.org/2001/xml-events" xmlns:xlink="http://www.w3.org/1999/xlink"><defs /><rect fill="#1a1a1a" height="200" width="200" x="0" y="0" /><text alignment-baseline="middle" fill="#e1ed5e" style="dominant-baseline: central; font-size:9.0px; font-family:Arial;" text-anchor="middle" x="100.0" y="100.0">2021</text><line stroke="#e1ed5e" stroke-width="0.3" x1="100.0" x2="100.0" y1="15.0" y2="10.0" /><path d="M 100.0 14.0 a86.0,86.0 0 0,1 42.46469731375804,11.215312516191453" fill="none" id="id37" stroke="none" /><text fill="#e1ed5e" style="font-size:6.75px; font-family:Arial;" text-anchor="middle"><textPath startOffset="22.20632615414155" xlink:href="#id37">January</textPath></text><line stroke="#e1ed5e" stroke-width="0.3" x1="143.23703022742887" x2="145.7803849466894" y1="26.81831364943548" y2="22.513508569990506" /><path d="M 143.74570117128098 25.957352633546492 a86.0,86.0 0 0,1 28.547481713284135,27.462654790039103" fill="none" id="id38" stroke="none" /><text fill="#e1ed5e" style="font-size:6.75px; font-family:Arial;" text-anchor="middle"><textPath startOffset="19.985693538727396" xlink:href="#id38">February</textPath></text><path d="M 114.68862486808459 84.99185889309783 l 3.043398697758574 -3.1096006270653147 a25.351079371071457,25.351079371071457 0 0,0 0.30923995057072456,0.3079119759468412 l -3.096474448496621 3.056752800468355" fill="#ff2703" stroke="none" /><line stroke="#e1ed5e" stroke-width="0.3" x1="172.23445277983987" x2="176.4835382374775" y1="55.19839476539836" y2="52.563006222186495" /><path d="M 173.08426987136738 54.67131705675599 a86.0,86.0 0 0,1 12.851231095245387,41.99856678651699" fill="none" id="id39" stroke="none" /><text fill="#e1ed5e" style="font-size:6.75px; font-family:Arial;" text-anchor="middle"><textPath startOffset="22.20632615414155" xlink:href="#id39">March</textPath></text><path d="M 118.03404312379186 89.2402003453031 l 2.79720177712914 -1.6689175305322976 a24.257241702068246,24.257241702068246 0 0,0 0.21085356174988046,0.36041708621680624 l -2.825515013349348 1.6205210319615961" fill="#ff1702" stroke="none" /><path d="M 120.08093135843002 93.85539295169968 l 5.203348225055951 -1.5921836297208196 a26.441496252129912,26.441496252129912 0 0,0 0.12942999458390383,0.43637359863999975 l -5.229984116751557 1.50238064433429" fill="#ff3705" stroke="none" /><path d="M 120.67395015179393 96.31383870115 l 1.7786141113336937 -0.3171265507872877 a22.80666471882571,22.80666471882571 0 0,0 0.06558342987153766,0.3870771155669171 l -1.7838094027254543 0.2864636469045327" fill="#ff0200" stroke="none" /><path d="M 120.94382443527127 98.46500227214037 l 4.373394030279032 -0.3205312344104478 a25.385124355855027,25.385124355855027 0 0,0 0.02818886177418841,0.43606921496115275 l -4.378263483057636 0.2452029551962598" fill="#ff2703" stroke="none" /><path d="M 120.96714384426684 98.82574320788733 l 2.523031256042835 -0.14130139093460545 a23.526984923193872,23.526984923193872 0 0,0 0.019164848627656012,0.4045396643054021 l -2.5250897129039873 0.09785062000620358" fill="#ff0c01" stroke="none" /><line stroke="#e1ed5e" stroke-width="0.3" x1="184.98032266829074" x2="189.97916517819016" y1="98.17113171792111" y2="98.06355123074" /><path d="M 185.9800911702706 98.14961562048488 a86.0,86.0 0 0,1 -9.607161424134198,41.387399972396054" fill="none" id="id40" stroke="none" /><text fill="#e1ed5e" style="font-size:6.75px; font-family:Arial;" text-anchor="middle"><textPath startOffset="21.466115282336823" xlink:href="#id40">April</textPath></text><line stroke="#e1ed5e" stroke-width="0.3" x1="174.80103733775053" x2="179.2010983576182" y1="140.37084112569926" y2="142.7455964860345" /><path d="M 175.68104954172406 140.8457921977663 a86.0,86.0 0 0,1 -30.038265399797805,32.042727171017184" fill="none" id="id41" stroke="none" /><text fill="#e1ed5e" style="font-size:6.75px; font-family:Arial;" text-anchor="middle"><textPath startOffset="22.206326154141568" xlink:href="#id41">May</textPath></text><path d="M 118.30583269289576 110.29060199501025 l 3.2608032151760304 1.8330566347003023 a24.740713064927746,24.740713064927746 0 0,0 -0.21188418373780948,0.36943793411786857 l -3.2287670352858413 -1.888914414676486" fill="#ff1e03" stroke="none" /><path d="M 116.27256486870786 113.27417163493432 l 2.4534251319555986 2.001355444442978 a24.166183584871998,24.166183584871998 0 0,0 -0.26571754557399685,0.32007390107876826 l -2.4186115864880584 -2.0432906026355173" fill="#ff1602" stroke="none" /><line stroke="#e1ed5e" stroke-width="0.3" x1="143.8653032363475" x2="146.44561519142675" y1="172.8068346515853" y2="177.08958963109032" /><path d="M 144.38136562736335 173.6633856474863 a86.0,86.0 0 0,1 -40.68145358897372,12.25698825130547" fill="none" id="id42" stroke="none" /><text fill="#e1ed5e" style="font-size:6.75px; font-family:Arial;" text-anchor="middle"><textPath startOffset="21.466115282336833" xlink:href="#id42">June</textPath></text><path d="M 106.91757812671514 119.82793768551818 l 3.3061384814035817 9.476424637085044 a31.036591829927627,31.036591829927627 0 0,0 -0.5059411795170192,0.17164271771380535 l -3.1425275689493355 -9.531930341696972" fill="#ff770a" stroke="none" /><path d="M 104.48393922423573 120.51570834832081 l 0.3691004055373034 1.688773172999671 a22.728638174752362,22.728638174752362 0 0,0 -0.38293267887188487,0.08024726604230052 l -0.33997626523604046 -1.6948764197685124" fill="#ff0100" stroke="none" /><line stroke="#e1ed5e" stroke-width="0.3" x1="102.19456741930631" x2="102.32365962044197" y1="184.97166512339345" y2="189.96999836594603" /><path d="M 102.22038585953345 185.97133177190398 a86.0,86.0 0 0,1 -42.740103519485714,-10.115201625700543" fill="none" id="id43" stroke="none" /><text fill="#e1ed5e" style="font-size:6.75px; font-family:Arial;" text-anchor="middle"><textPath startOffset="22.20632615414155" xlink:href="#id43">July</textPath></text><path d="M 97.2962882734958 120.8252237178851 l -0.37888721781879997 2.9183625597265865 a23.942855000478342,23.942855000478342 0 0,0 -0.408250086715748,-0.05657974203553786 l 0.429065895721379 -2.9114082521984437" fill="#ff1202" stroke="none" /><line stroke="#e1ed5e" stroke-width="0.3" x1="58.666819895761336" x2="56.23545636021788" y1="174.27360380694188" y2="178.64263932499728" /><path d="M 58.180547188652646 175.14741091055294 a86.0,86.0 0 0,1 -31.652253787137756,-30.449443065178592" fill="none" id="id44" stroke="none" /><text fill="#e1ed5e" style="font-size:6.75px; font-family:Arial;" text-anchor="middle"><textPath startOffset="22.20632615414155" xlink:href="#id44">August</textPath></text><line stroke="#e1ed5e" stroke-width="0.3" x1="26.63291911575756" x2="22.317208475507996" y1="142.92168965132927" y2="145.44649492493687" /><path d="M 25.769776987707644 143.4266507060508 a86.0,86.0 0 0,1 -11.730757126820373,-40.83630448921669" fill="none" id="id45" stroke="none" /><text fill="#e1ed5e" style="font-size:6.75px; font-family:Arial;" text-anchor="middle"><textPath startOffset="21.46611528233685" xlink:href="#id45">September</textPath></text><path d="M 79.29508885075956 103.50808413554451 l -1.6667658782748993 0.28240425148878695 a22.690520823367887,22.690520823367887 0 0,0 -0.06193242124876417,-0.3856532462351734 l 1.6713800538849541 -0.2536717755603999" fill="#ff0000" stroke="none" /><path d="M 79.04373962182676 101.35467743843564 l -6.5259483117814945 0.42185746802303214 a27.53956918239807,27.53956918239807 0 0,0 -0.026508342293406758,-0.47332425894592434 l 6.5322430049624325 -0.30946149274167023" fill="#ff4606" stroke="none" /><line stroke="#e1ed5e" stroke-width="0.3" x1="15.007084014347285" x2="10.007500721073583" y1="101.09737516637583" y2="101.16192664675087" /><path d="M 14.007167355692545 101.11028546245083 a86.0,86.0 0 0,1 10.666146001902534,-42.60595125391555" fill="none" id="id46" stroke="none" /><text fill="#e1ed5e" style="font-size:6.75px; font-family:Arial;" text-anchor="middle"><textPath startOffset="22.20632615414155" xlink:href="#id46">October</textPath></text><path d="M 79.54389044137918 95.25157060432595 l -6.5899632536457275 -1.5297129271013201 a27.765178292088233,27.765178292088233 0 0,0 0.11207506733712062,-0.4646235094023682 l 6.562655386047791 1.6429216681630852" fill="#ff4906" stroke="none" /><path d="M 79.62865764111835 94.90015583598534 l -18.779045260969042 -4.701222074261855 a40.35856476872836,40.35856476872836 0 0,0 0.17450979625953883,-0.672457432014083 l 18.695339132839194 5.023775931824802" fill="#fff016" stroke="none" /><path d="M 79.91906864156998 93.8553929516997 l -2.750663861884841 -0.8416815062786986 a23.876556872215602,23.876556872215602 0 0,0 0.1236402203023835,-0.3919732860955513 l 2.735768157814254 0.8889049588006644" fill="#ff1101" stroke="none" /><path d="M 80.02781315780177 93.51064311812611 l -4.394983117335778 -1.4280165794334918 a25.62115872404351,25.62115872404351 0 0,0 0.1398948283810377,-0.41826773070945295 l 4.369750995182969 1.503457413065267" fill="#ff2b04" stroke="none" /><path d="M 80.52162464483688 92.15188598940014 l -15.125023709669518 -6.094086817925899 a37.306570343345754,37.306570343345754 0 0,0 0.2451189354302941,-0.5935749448040075 l 15.017883087353024 6.353536333183218" fill="#ffca12" stroke="none" /><path d="M 81.26839172434947 90.50648371742162 l -8.70035892627344 -4.409498528656615 a30.753969587824784,30.753969587824784 0 0,0 0.24338188754177217,-0.47013633983180103 l 8.623167605571554 4.558607590748751" fill="#ff730a" stroke="none" /><path d="M 81.43458229118936 90.18545643968196 l -55.69625312643191 -29.44363068095413 a84.0,84.0 0 0,0 0.6867676031261127,-1.2724760666701092 l 55.18117742408733 30.39798773095671" fill="#4dd2ff" stroke="none" /><line stroke="#e1ed5e" stroke-width="0.3" x1="26.266209847984243" x2="21.928928074336255" y1="57.711370442889674" y2="55.22380399835377" /><path d="M 25.398753493254645 57.213857153982495 a86.0,86.0 0 0,1 29.58750427330803,-30.492523968695096" fill="none" id="id47" stroke="none" /><text fill="#e1ed5e" style="font-size:6.75px; font-family:Arial;" text-anchor="middle"><textPath startOffset="21.46611528233685" xlink:href="#id47">November</textPath></text><path d="M 81.96595687620814 89.24020034530311 l -1.849460126796578 -1.1034586252834317 a23.15363035322286,23.15363035322286 0 0,0 0.20715244550910922,-0.34050415334886125 l 1.830191883001252 1.1351305518393673" fill="#ff0701" stroke="none" /><path d="M 82.7489923806493 88.02491185347247 l -6.046659867891912 -4.197394523717766 a28.36072118380465,28.36072118380465 0 0,0 0.2818345049676593,-0.398634920235146 l 5.9735127431203745 4.300855944284698" fill="#ff5207" stroke="none" /><path d="M 82.95767976084542 87.72973835380427 l -3.5216849863174544 -2.5355700169461213 a25.339513849924888,25.339513849924888 0 0,0 0.2579048328789309,-0.3517819022075841 l 3.4775175409248904 2.595814362825206" fill="#ff2703" stroke="none" /><path d="M 83.17141714833178 87.43820079747576 l -4.100181154671575 -3.0606054480607994 a26.116521397377653,26.116521397377653 0 0,0 0.2720148374884938,-0.3579396409140102 l 4.046890376958972 3.130729864855836" fill="#ff3204" stroke="none" /><path d="M 83.84228863543731 86.58626213691792 l -3.6919509635290986 -3.0649676374803203 a25.798388118514918,25.798388118514918 0 0,0 0.2865947684375909,-0.33923780918678315 l 3.6386455816043837 3.1280643962962196" fill="#ff2d04" stroke="none" /><path d="M 84.31358615837235 86.03803664274999 l -12.368545042971494 -11.008836972934647 a37.55824259928171,37.55824259928171 0 0,0 0.4339879244762415,-0.4792203056919695 l 12.177213477879206 11.220110065896172" fill="#ffcd13" stroke="none" /><path d="M 84.5562425177563 85.77008943001954 l -14.601036009093468 -13.453425235234853 a40.854090336726536,40.854090336726536 0 0,0 0.48097457916237235,-0.5130701460677003 l 14.367294107960639 13.702764798180603" fill="#fff717" stroke="none" /><path d="M 85.05521093208273 85.24692304244772 l -2.3271957078944916 -2.2973423858860484 a24.270110380527107,24.270110380527107 0 0,0 0.29605397168946246,-0.2947826218493856 l 2.2873059360377157 2.3370608583855432" fill="#ff1702" stroke="none" /><path d="M 85.83668400450813 84.49514656593479 l -4.0329706573330615 -4.414970263018775 a26.97970022210558,26.97970022210558 0 0,0 0.34558299608099674,-0.31026782603553366 l 3.9563766736560932 4.483737097823587" fill="#ff3e05" stroke="none" /><path d="M 86.10567301691215 84.25364557470407 l -3.783610545244239 -4.287942318128928 a26.71858007565552,26.71858007565552 0 0,0 0.3474766623816325,-0.3013283375254603 l 3.7092400842158333 4.352435649074069" fill="#ff3a05" stroke="none" /><path d="M 86.37877921826538 84.01681056812374 l -16.238623270755184 -19.054458921728305 a46.035280915726574,46.035280915726574 0 0,0 0.6075395780839868,-0.5087969247424217 l 15.908226155712088 19.331157003864536" fill="#c9ff1d" stroke="none" /><path d="M 88.09926311788651 82.69761687909137 l -9.737696649385708 -14.157556780882121 a38.183106530524654,38.183106530524654 0 0,0 0.5447371175961996,-0.3678089334550558 l 9.492554837382968 14.323077626635843" fill="#ffd513" stroke="none" /><path d="M 88.70189139769569 82.29822771554957 l -6.788803330049678 -10.636634401615506 a33.618472254901704,33.618472254901704 0 0,0 0.4904788583527162,-0.3071378161038553 l 6.60470531932472 10.751916559042293" fill="#ff9a0e" stroke="none" /><line stroke="#e1ed5e" stroke-width="0.3" x1="56.762969772571076" x2="54.21961505331055" y1="26.818313649435495" y2="22.513508569990535" /><path d="M 56.25429882871897 25.957352633546506 a86.0,86.0 0 0,1 42.265352541879196,-11.944610805530505" fill="none" id="id48" stroke="none" /><text fill="#e1ed5e" style="font-size:6.75px; font-family:Arial;" text-anchor="middle"><textPath startOffset="22.20632615414155" xlink:href="#id48">December</textPath></text><path d="M 89.94658935756843 81.56283822128135 l -6.188667820335408 -11.349528419409797 a33.92715764325034,33.92715764325034 0 0,0 0.5151353462745446,-0.275167461713062 l 5.992387427532559 11.454374607624608" fill="#ff9e0e" stroke="none" /><path d="M 90.26544431104013 81.39251694778311 l -7.716655209481751 -14.750291191315279 a37.64685729651741,37.64685729651741 0 0,0 0.576784833828424,-0.2954515943314058 l 7.461609888064563 14.88093531095919" fill="#ffce13" stroke="none" /><path d="M 92.57280143429618 80.3572730644239 l -7.408321049071526 -19.592801529496075 a41.946624848417464,41.946624848417464 0 0,0 0.6775731677509866,-0.249555915957876 l 7.06996555554797 19.71742071326027" fill="#faff18" stroke="none" /><path d="M 93.59665428221793 80.00007090966166 l -6.292399404101621 -19.65340424157348 a41.63614761876443,41.63614761876443 0 0,0 0.6844479610463259,-0.2126613132190448 l 5.953166070344567 19.75880568967505" fill="#feff18" stroke="none" /><path d="M 94.98787191387505 79.60689891045804 l -4.021049812946964 -16.360650388906876 a37.84754352261004,37.84754352261004 0 0,0 0.6339937770432755,-0.15004584350874217 l 3.738832348941154 16.427442144556487" fill="#ffd113" stroke="none" /><path d="M 95.692805502759 79.44645832069477 l -3.4091667237537244 -16.268234553433004 a37.6216086235918,37.6216086235918 0 0,0 0.6349696107657993,-0.1273689304356606 l 3.1286307035207885 16.324507439945876" fill="#ffce13" stroke="none" /><path d="M 96.04723909329186 79.375362276772 l -0.9220107398697913 -4.810849412740349 a25.898405442233155,25.898405442233155 0 0,0 0.4385523490911186,-0.08014263864033312 l 0.8390632696757795 4.826007532731418" fill="#ff2f04" stroke="none" /><path d="M 96.40284397218896 79.31037775812273 l -0.9679460219165572 -5.567297439741043 a26.650815895416454,26.650815895416454 0 0,0 0.4526460791649805,-0.07469048148348806 l 0.8719707366126911 5.583134184164158" fill="#ff3a05" stroke="none" /><path d="M 97.47563105711357 79.15227682838746 l -2.0124237125550413 -16.619778412962294 a37.74117330699438,37.74117330699438 0 0,0 0.6456136238325062,-0.07254221311608226 l 1.7260433852128172 16.651956579548973" fill="#ffcf13" stroke="none" /></svg>